<?xml version="1.0" encoding="UTF-8"?>
<svg xmlns="http://www.w3.org/2000/svg" xmlns:xlink="http://www.w3.org/1999/xlink" width="4984" height="4976.29" viewBox="0 0 4984 4976.29">
<defs>
<clipPath id="clip-0">

</clipPath>
<clipPath id="clip-1">
<path clip-rule="nonzero" d="M 2092 1673 L 3038 1673 L 3038 2302 L 2092 2302 Z M 2092 1673 "/>
</clipPath>
<clipPath id="clip-2">
<path clip-rule="nonzero" d="M 3037.179688 1720.140625 L 3037.179688 2255.488281 C 3037.179688 2280.960938 3016.441406 2301.859375 2990.980469 2301.859375 L 2903.941406 2301.859375 L 2903.941406 1772.738281 L 2816.050781 1772.738281 C 2688.371094 1764.570312 2557.730469 1899.308594 2557.730469 1899.308594 L 2117.261719 2301.859375 L 2092.609375 2287.160156 C 2092.300781 2281.621094 2095.230469 2274.589844 2101.898438 2267.25 L 2601.949219 1708.390625 C 2618.960938 1689.289062 2653.578125 1673.769531 2679.039062 1673.769531 L 2990.980469 1673.769531 C 3016.441406 1673.769531 3037.179688 1694.679688 3037.179688 1720.140625 Z M 3037.179688 1720.140625 "/>
</clipPath>
<clipPath id="clip-3">
<path clip-rule="nonzero" d="M 3037.179688 1720.140625 L 3037.179688 2255.488281 C 3037.179688 2280.960938 3016.441406 2301.859375 2990.980469 2301.859375 L 2903.941406 2301.859375 L 2903.941406 1772.738281 L 2816.050781 1772.738281 C 2688.371094 1764.570312 2557.730469 1899.308594 2557.730469 1899.308594 L 2117.261719 2301.859375 L 2092.609375 2287.160156 C 2092.300781 2281.621094 2095.230469 2274.589844 2101.898438 2267.25 L 2601.949219 1708.390625 C 2618.960938 1689.289062 2653.578125 1673.769531 2679.039062 1673.769531 L 2990.980469 1673.769531 C 3016.441406 1673.769531 3037.179688 1694.679688 3037.179688 1720.140625 "/>
</clipPath>
<linearGradient id="linear-pattern-0" gradientUnits="userSpaceOnUse" x1="0.0431441" y1="0" x2="1.00302" y2="0" gradientTransform="matrix(-1083.12, 317.632, -317.632, -1083.12, 3152.51, 1893.99)">
<stop offset="0" stop-color="rgb(53.398132%, 65.29541%, 81.282043%)" stop-opacity="1"/>
<stop offset="0.125" stop-color="rgb(53.398132%, 65.29541%, 81.282043%)" stop-opacity="1"/>
<stop offset="0.1875" stop-color="rgb(53.398132%, 65.29541%, 81.282043%)" stop-opacity="1"/>
<stop offset="0.195312" stop-color="rgb(53.486633%, 65.388489%, 81.321716%)" stop-opacity="1"/>
<stop offset="0.203125" stop-color="rgb(53.681946%, 65.594482%, 81.408691%)" stop-opacity="1"/>
<stop offset="0.210938" stop-color="rgb(53.892517%, 65.818787%, 81.50177%)" stop-opacity="1"/>
<stop offset="0.21875" stop-color="rgb(54.045105%, 66.03241%, 81.596375%)" stop-opacity="1"/>
<stop offset="0.234375" stop-color="rgb(54.18396%, 66.252136%, 81.694031%)" stop-opacity="1"/>
<stop offset="0.242188" stop-color="rgb(54.420471%, 66.424561%, 81.759644%)" stop-opacity="1"/>
<stop offset="0.246094" stop-color="rgb(54.779053%, 66.615295%, 81.825256%)" stop-opacity="1"/>
<stop offset="0.25" stop-color="rgb(54.997253%, 66.752625%, 81.874084%)" stop-opacity="1"/>
<stop offset="0.257812" stop-color="rgb(55.14679%, 66.876221%, 81.922913%)" stop-opacity="1"/>
<stop offset="0.265625" stop-color="rgb(55.403137%, 67.112732%, 82.019043%)" stop-opacity="1"/>
<stop offset="0.273438" stop-color="rgb(55.618286%, 67.34314%, 82.113647%)" stop-opacity="1"/>
<stop offset="0.28125" stop-color="rgb(55.831909%, 67.572021%, 82.208252%)" stop-opacity="1"/>
<stop offset="0.289062" stop-color="rgb(56.047058%, 67.802429%, 82.304382%)" stop-opacity="1"/>
<stop offset="0.296875" stop-color="rgb(56.262207%, 68.032837%, 82.398987%)" stop-opacity="1"/>
<stop offset="0.304688" stop-color="rgb(56.477356%, 68.258667%, 82.492065%)" stop-opacity="1"/>
<stop offset="0.3125" stop-color="rgb(56.697083%, 68.39447%, 82.540894%)" stop-opacity="1"/>
<stop offset="0.320312" stop-color="rgb(56.921387%, 68.482971%, 82.563782%)" stop-opacity="1"/>
<stop offset="0.328125" stop-color="rgb(57.139587%, 68.661499%, 82.633972%)" stop-opacity="1"/>
<stop offset="0.335938" stop-color="rgb(57.359314%, 68.823242%, 82.693481%)" stop-opacity="1"/>
<stop offset="0.34375" stop-color="rgb(57.583618%, 68.90564%, 82.704163%)" stop-opacity="1"/>
<stop offset="0.351562" stop-color="rgb(57.804871%, 69.058228%, 82.661438%)" stop-opacity="1"/>
<stop offset="0.359375" stop-color="rgb(58.023071%, 69.290161%, 82.666016%)" stop-opacity="1"/>
<stop offset="0.367188" stop-color="rgb(58.23822%, 69.526672%, 82.847595%)" stop-opacity="1"/>
<stop offset="0.375" stop-color="rgb(58.459473%, 69.68689%, 83.006287%)" stop-opacity="1"/>
<stop offset="0.390625" stop-color="rgb(58.656311%, 69.859314%, 83.087158%)" stop-opacity="1"/>
<stop offset="0.398438" stop-color="rgb(58.80127%, 70.097351%, 83.190918%)" stop-opacity="1"/>
<stop offset="0.40625" stop-color="rgb(58.970642%, 70.323181%, 83.285522%)" stop-opacity="1"/>
<stop offset="0.414062" stop-color="rgb(59.188843%, 70.561218%, 83.381653%)" stop-opacity="1"/>
<stop offset="0.421875" stop-color="rgb(59.408569%, 70.773315%, 83.465576%)" stop-opacity="1"/>
<stop offset="0.429688" stop-color="rgb(59.631348%, 70.890808%, 83.503723%)" stop-opacity="1"/>
<stop offset="0.4375" stop-color="rgb(59.857178%, 71.003723%, 83.537292%)" stop-opacity="1"/>
<stop offset="0.445312" stop-color="rgb(60.07843%, 71.209717%, 83.618164%)" stop-opacity="1"/>
<stop offset="0.453125" stop-color="rgb(60.301208%, 71.356201%, 83.668518%)" stop-opacity="1"/>
<stop offset="0.46875" stop-color="rgb(60.482788%, 71.5271%, 83.734131%)" stop-opacity="1"/>
<stop offset="0.476562" stop-color="rgb(60.629272%, 71.784973%, 83.847046%)" stop-opacity="1"/>
<stop offset="0.484375" stop-color="rgb(60.816956%, 72.016907%, 83.94165%)" stop-opacity="1"/>
<stop offset="0.492187" stop-color="rgb(61.038208%, 72.259521%, 84.039307%)" stop-opacity="1"/>
<stop offset="0.5" stop-color="rgb(61.25946%, 72.462463%, 84.115601%)" stop-opacity="1"/>
<stop offset="0.507812" stop-color="rgb(61.485291%, 72.569275%, 84.147644%)" stop-opacity="1"/>
<stop offset="0.515625" stop-color="rgb(61.709595%, 72.697449%, 84.188843%)" stop-opacity="1"/>
<stop offset="0.53125" stop-color="rgb(61.915588%, 72.904968%, 84.269714%)" stop-opacity="1"/>
<stop offset="0.546875" stop-color="rgb(62.17804%, 73.191833%, 84.384155%)" stop-opacity="1"/>
<stop offset="0.554688" stop-color="rgb(62.458801%, 73.417664%, 84.466553%)" stop-opacity="1"/>
<stop offset="0.5625" stop-color="rgb(62.687683%, 73.506165%, 84.487915%)" stop-opacity="1"/>
<stop offset="0.570312" stop-color="rgb(62.910461%, 73.677063%, 84.54895%)" stop-opacity="1"/>
<stop offset="0.578125" stop-color="rgb(63.134766%, 73.924255%, 84.646606%)" stop-opacity="1"/>
<stop offset="0.585938" stop-color="rgb(63.357544%, 74.171448%, 84.744263%)" stop-opacity="1"/>
<stop offset="0.59375" stop-color="rgb(63.581848%, 74.41864%, 84.841919%)" stop-opacity="1"/>
<stop offset="0.609375" stop-color="rgb(63.771057%, 74.629211%, 84.924316%)" stop-opacity="1"/>
<stop offset="0.617188" stop-color="rgb(63.925171%, 74.80011%, 84.991455%)" stop-opacity="1"/>
<stop offset="0.625" stop-color="rgb(64.109802%, 75.003052%, 85.070801%)" stop-opacity="1"/>
<stop offset="0.632812" stop-color="rgb(64.337158%, 75.15564%, 85.122681%)" stop-opacity="1"/>
<stop offset="0.640625" stop-color="rgb(64.564514%, 75.247192%, 85.145569%)" stop-opacity="1"/>
<stop offset="0.648437" stop-color="rgb(64.79187%, 75.437927%, 85.214233%)" stop-opacity="1"/>
<stop offset="0.65625" stop-color="rgb(65.0177%, 75.617981%, 85.27832%)" stop-opacity="1"/>
<stop offset="0.664062" stop-color="rgb(65.246582%, 75.709534%, 85.301208%)" stop-opacity="1"/>
<stop offset="0.671875" stop-color="rgb(65.472412%, 75.874329%, 85.357666%)" stop-opacity="1"/>
<stop offset="0.679688" stop-color="rgb(65.647888%, 76.112366%, 85.453796%)" stop-opacity="1"/>
<stop offset="0.6875" stop-color="rgb(65.707397%, 76.322937%, 85.546875%)" stop-opacity="1"/>
<stop offset="0.695312" stop-color="rgb(65.79895%, 76.461792%, 85.604858%)" stop-opacity="1"/>
<stop offset="0.703125" stop-color="rgb(66.00647%, 76.550293%, 85.626221%)" stop-opacity="1"/>
<stop offset="0.710938" stop-color="rgb(66.233826%, 76.721191%, 85.68573%)" stop-opacity="1"/>
<stop offset="0.71875" stop-color="rgb(66.461182%, 76.976013%, 85.784912%)" stop-opacity="1"/>
<stop offset="0.726563" stop-color="rgb(66.687012%, 77.229309%, 85.882568%)" stop-opacity="1"/>
<stop offset="0.734375" stop-color="rgb(66.915894%, 77.398682%, 85.940552%)" stop-opacity="1"/>
<stop offset="0.75" stop-color="rgb(67.11731%, 77.584839%, 86.00769%)" stop-opacity="1"/>
<stop offset="0.757812" stop-color="rgb(67.271423%, 77.845764%, 86.116028%)" stop-opacity="1"/>
<stop offset="0.765625" stop-color="rgb(67.453003%, 78.088379%, 86.213684%)" stop-opacity="1"/>
<stop offset="0.773437" stop-color="rgb(67.680359%, 78.346252%, 86.312866%)" stop-opacity="1"/>
<stop offset="0.78125" stop-color="rgb(67.909241%, 78.573608%, 86.39679%)" stop-opacity="1"/>
<stop offset="0.789062" stop-color="rgb(68.141174%, 78.700256%, 86.433411%)" stop-opacity="1"/>
<stop offset="0.796875" stop-color="rgb(68.370056%, 78.82843%, 86.471558%)" stop-opacity="1"/>
<stop offset="0.804688" stop-color="rgb(68.600464%, 79.051208%, 86.553955%)" stop-opacity="1"/>
<stop offset="0.8125" stop-color="rgb(68.829346%, 79.208374%, 86.604309%)" stop-opacity="1"/>
<stop offset="0.828125" stop-color="rgb(69.015503%, 79.396057%, 86.6745%)" stop-opacity="1"/>
<stop offset="0.835938" stop-color="rgb(69.172668%, 79.600525%, 86.755371%)" stop-opacity="1"/>
<stop offset="0.84375" stop-color="rgb(69.361877%, 79.6875%, 86.776733%)" stop-opacity="1"/>
<stop offset="0.851563" stop-color="rgb(69.464111%, 79.824829%, 86.830139%)" stop-opacity="1"/>
<stop offset="0.859375" stop-color="rgb(69.515991%, 80.038452%, 86.924744%)" stop-opacity="1"/>
<stop offset="0.867188" stop-color="rgb(69.685364%, 80.282593%, 87.0224%)" stop-opacity="1"/>
<stop offset="0.875" stop-color="rgb(69.917297%, 80.54657%, 87.121582%)" stop-opacity="1"/>
<stop offset="0.882812" stop-color="rgb(70.147705%, 80.79071%, 87.213135%)" stop-opacity="1"/>
<stop offset="0.890625" stop-color="rgb(70.381165%, 80.935669%, 87.257385%)" stop-opacity="1"/>
<stop offset="0.898437" stop-color="rgb(70.611572%, 80.99823%, 87.263489%)" stop-opacity="1"/>
<stop offset="0.90625" stop-color="rgb(70.845032%, 81.060791%, 87.271118%)" stop-opacity="1"/>
<stop offset="0.914062" stop-color="rgb(70.97168%, 81.185913%, 87.315369%)" stop-opacity="1"/>
<stop offset="0.921875" stop-color="rgb(71.012878%, 81.362915%, 87.393188%)" stop-opacity="1"/>
<stop offset="0.929688" stop-color="rgb(71.159363%, 81.477356%, 87.431335%)" stop-opacity="1"/>
<stop offset="0.9375" stop-color="rgb(71.392822%, 81.602478%, 87.466431%)" stop-opacity="1"/>
<stop offset="0.945312" stop-color="rgb(71.62323%, 81.829834%, 87.548828%)" stop-opacity="1"/>
<stop offset="0.953125" stop-color="rgb(71.858215%, 82.095337%, 87.64801%)" stop-opacity="1"/>
<stop offset="0.960938" stop-color="rgb(72.091675%, 82.328796%, 87.733459%)" stop-opacity="1"/>
<stop offset="0.96875" stop-color="rgb(72.323608%, 82.460022%, 87.771606%)" stop-opacity="1"/>
<stop offset="0.976563" stop-color="rgb(72.477722%, 82.572937%, 87.808228%)" stop-opacity="1"/>
<stop offset="0.984375" stop-color="rgb(72.518921%, 82.756042%, 87.887573%)" stop-opacity="1"/>
<stop offset="1" stop-color="rgb(72.711182%, 83.071899%, 88.014221%)" stop-opacity="1"/>
</linearGradient>
<clipPath id="clip-4">
<path clip-rule="nonzero" d="M 1105 1658 L 2424 1658 L 2424 2270 L 1105 2270 Z M 1105 1658 "/>
</clipPath>
<clipPath id="clip-5">
<path clip-rule="nonzero" d="M 1185.390625 2269.851562 C 1181.460938 2269.609375 1170.820312 2268.730469 1158.519531 2265.960938 C 1137.140625 2261.128906 1110.761719 2250.550781 1105.878906 2227.539062 C 1166.640625 2197.011719 1230.148438 2166.460938 1295.960938 2136.261719 L 1185.410156 2269.820312 L 1185.390625 2269.851562 M 1716.980469 2269.351562 L 1716.980469 1953.519531 C 1748.660156 1940.449219 1780.179688 1927.378906 1811.828125 1914.160156 L 1811.828125 2269.191406 L 1716.980469 2269.351562 M 1105.011719 2219.53125 C 1104.988281 2208.449219 1109.539062 2194.949219 1120.71875 2178.550781 C 1120.71875 2178.550781 1367.179688 1850.628906 1528.191406 1722.589844 C 1528.191406 1722.589844 1584.878906 1670.660156 1644.621094 1666.089844 C 1645.910156 1665.96875 1647.238281 1665.871094 1648.601562 1665.761719 C 1650.390625 1665.628906 1652.238281 1665.5 1654.140625 1665.371094 C 1659.191406 1665.039062 1664.640625 1664.75 1670.460938 1664.460938 C 1672.878906 1664.289062 1675.339844 1664.121094 1677.941406 1663.960938 L 1679.429688 1663.960938 C 1742.949219 1660.441406 1833.300781 1658.5 1930.121094 1658.5 C 1941.039062 1658.5 1952.03125 1658.519531 1963.078125 1658.570312 C 2079.441406 1658.941406 2201.78125 1662.160156 2295.710938 1669.078125 C 2325.160156 1671.25 2351.828125 1673.78125 2374.628906 1676.699219 C 2377.671875 1677.128906 2380.648438 1677.550781 2383.558594 1677.96875 C 2387.359375 1678.53125 2391.03125 1679.078125 2394.539062 1679.628906 C 2397.421875 1681.078125 2403.199219 1683.46875 2408.808594 1687.628906 C 2421.601562 1697.121094 2433.558594 1715.820312 2408.570312 1753.621094 L 2391.28125 1772.410156 L 2153.660156 1772.410156 C 2229.921875 1740.230469 2303.910156 1708.378906 2374.628906 1676.699219 C 2279.101562 1664.460938 2115.929688 1659.058594 1963.078125 1658.570312 C 1850.058594 1658.738281 1745.230469 1660.699219 1679.429688 1663.960938 L 1677.941406 1663.960938 C 1675.339844 1664.121094 1672.878906 1664.289062 1670.460938 1664.460938 C 1660.789062 1664.941406 1652.140625 1665.441406 1644.621094 1666.089844 C 1584.878906 1670.660156 1528.191406 1722.589844 1528.191406 1722.589844 C 1367.179688 1850.628906 1120.71875 2178.550781 1120.71875 2178.550781 C 1109.539062 2194.949219 1104.988281 2208.449219 1105.011719 2219.53125 "/>
</clipPath>
<clipPath id="clip-6">
<path clip-rule="nonzero" d="M 1185.390625 2269.851562 C 1181.460938 2269.609375 1170.820312 2268.730469 1158.519531 2265.960938 C 1137.140625 2261.128906 1110.761719 2250.550781 1105.878906 2227.539062 C 1166.640625 2197.011719 1230.148438 2166.460938 1295.960938 2136.261719 L 1185.410156 2269.820312 L 1185.390625 2269.851562 M 1716.980469 2269.351562 L 1716.980469 1953.519531 C 1748.660156 1940.449219 1780.179688 1927.378906 1811.828125 1914.160156 L 1811.828125 2269.191406 L 1716.980469 2269.351562 M 1105.011719 2219.53125 C 1104.988281 2208.449219 1109.539062 2194.949219 1120.71875 2178.550781 C 1120.71875 2178.550781 1367.179688 1850.628906 1528.191406 1722.589844 C 1528.191406 1722.589844 1584.878906 1670.660156 1644.621094 1666.089844 C 1645.910156 1665.96875 1647.238281 1665.871094 1648.601562 1665.761719 C 1650.390625 1665.628906 1652.238281 1665.5 1654.140625 1665.371094 C 1659.191406 1665.039062 1664.640625 1664.75 1670.460938 1664.460938 C 1672.878906 1664.289062 1675.339844 1664.121094 1677.941406 1663.960938 L 1679.429688 1663.960938 C 1742.949219 1660.441406 1833.300781 1658.5 1930.121094 1658.5 C 1941.039062 1658.5 1952.03125 1658.519531 1963.078125 1658.570312 C 2079.441406 1658.941406 2201.78125 1662.160156 2295.710938 1669.078125 C 2325.160156 1671.25 2351.828125 1673.78125 2374.628906 1676.699219 C 2377.671875 1677.128906 2380.648438 1677.550781 2383.558594 1677.96875 C 2387.359375 1678.53125 2391.03125 1679.078125 2394.539062 1679.628906 C 2397.421875 1681.078125 2403.199219 1683.46875 2408.808594 1687.628906 C 2421.601562 1697.121094 2433.558594 1715.820312 2408.570312 1753.621094 L 2391.28125 1772.410156 L 2153.660156 1772.410156 C 2229.921875 1740.230469 2303.910156 1708.378906 2374.628906 1676.699219 C 2279.101562 1664.460938 2115.929688 1659.058594 1963.078125 1658.570312 C 1850.058594 1658.738281 1745.230469 1660.699219 1679.429688 1663.960938 L 1677.941406 1663.960938 C 1675.339844 1664.121094 1672.878906 1664.289062 1670.460938 1664.460938 C 1660.789062 1664.941406 1652.140625 1665.441406 1644.621094 1666.089844 C 1584.878906 1670.660156 1528.191406 1722.589844 1528.191406 1722.589844 C 1367.179688 1850.628906 1120.71875 2178.550781 1120.71875 2178.550781 C 1109.539062 2194.949219 1104.988281 2208.449219 1105.011719 2219.53125 "/>
</clipPath>
<linearGradient id="linear-pattern-1" gradientUnits="userSpaceOnUse" x1="-0.0489468" y1="0" x2="1.010864" y2="0" gradientTransform="matrix(-1028.81, 849.179, -849.179, -1028.81, 2239.39, 1525.83)">
<stop offset="0" stop-color="rgb(53.398132%, 65.29541%, 81.282043%)" stop-opacity="1"/>
<stop offset="0.25" stop-color="rgb(53.398132%, 65.29541%, 81.282043%)" stop-opacity="1"/>
<stop offset="0.265625" stop-color="rgb(53.515625%, 65.419006%, 81.333923%)" stop-opacity="1"/>
<stop offset="0.273438" stop-color="rgb(53.747559%, 65.664673%, 81.437683%)" stop-opacity="1"/>
<stop offset="0.28125" stop-color="rgb(53.979492%, 65.913391%, 81.542969%)" stop-opacity="1"/>
<stop offset="0.296875" stop-color="rgb(54.151917%, 66.195679%, 81.668091%)" stop-opacity="1"/>
<stop offset="0.304688" stop-color="rgb(54.335022%, 66.386414%, 81.748962%)" stop-opacity="1"/>
<stop offset="0.308594" stop-color="rgb(54.705811%, 66.569519%, 81.808472%)" stop-opacity="1"/>
<stop offset="0.3125" stop-color="rgb(54.945374%, 66.720581%, 81.863403%)" stop-opacity="1"/>
<stop offset="0.320313" stop-color="rgb(55.12085%, 66.859436%, 81.916809%)" stop-opacity="1"/>
<stop offset="0.328125" stop-color="rgb(55.410767%, 67.123413%, 82.023621%)" stop-opacity="1"/>
<stop offset="0.335938" stop-color="rgb(55.647278%, 67.376709%, 82.12738%)" stop-opacity="1"/>
<stop offset="0.34375" stop-color="rgb(55.885315%, 67.628479%, 82.232666%)" stop-opacity="1"/>
<stop offset="0.351563" stop-color="rgb(56.123352%, 67.883301%, 82.337952%)" stop-opacity="1"/>
<stop offset="0.359375" stop-color="rgb(56.359863%, 68.138123%, 82.443237%)" stop-opacity="1"/>
<stop offset="0.367188" stop-color="rgb(56.602478%, 68.333435%, 82.518005%)" stop-opacity="1"/>
<stop offset="0.375" stop-color="rgb(56.848145%, 68.440247%, 82.550049%)" stop-opacity="1"/>
<stop offset="0.382813" stop-color="rgb(57.089233%, 68.608093%, 82.611084%)" stop-opacity="1"/>
<stop offset="0.390625" stop-color="rgb(57.331848%, 68.800354%, 82.685852%)" stop-opacity="1"/>
<stop offset="0.398438" stop-color="rgb(57.579041%, 68.907166%, 82.702637%)" stop-opacity="1"/>
<stop offset="0.40625" stop-color="rgb(57.823181%, 69.076538%, 82.653809%)" stop-opacity="1"/>
<stop offset="0.414063" stop-color="rgb(58.062744%, 69.334412%, 82.693481%)" stop-opacity="1"/>
<stop offset="0.421875" stop-color="rgb(58.303833%, 69.578552%, 82.902527%)" stop-opacity="1"/>
<stop offset="0.4375" stop-color="rgb(58.584595%, 69.799805%, 83.06427%)" stop-opacity="1"/>
<stop offset="0.445313" stop-color="rgb(58.764648%, 70.014954%, 83.152771%)" stop-opacity="1"/>
<stop offset="0.453125" stop-color="rgb(58.906555%, 70.252991%, 83.258057%)" stop-opacity="1"/>
<stop offset="0.460938" stop-color="rgb(59.147644%, 70.515442%, 83.363342%)" stop-opacity="1"/>
<stop offset="0.46875" stop-color="rgb(59.390259%, 70.755005%, 83.457947%)" stop-opacity="1"/>
<stop offset="0.476563" stop-color="rgb(59.635925%, 70.892334%, 83.503723%)" stop-opacity="1"/>
<stop offset="0.484375" stop-color="rgb(59.883118%, 71.026611%, 83.546448%)" stop-opacity="1"/>
<stop offset="0.492188" stop-color="rgb(60.128784%, 71.238708%, 83.627319%)" stop-opacity="1"/>
<stop offset="0.5" stop-color="rgb(60.375977%, 71.372986%, 83.670044%)" stop-opacity="1"/>
<stop offset="0.507812" stop-color="rgb(60.528564%, 71.488953%, 83.712769%)" stop-opacity="1"/>
<stop offset="0.515625" stop-color="rgb(60.585022%, 71.687317%, 83.802795%)" stop-opacity="1"/>
<stop offset="0.523438" stop-color="rgb(60.739136%, 71.932983%, 83.908081%)" stop-opacity="1"/>
<stop offset="0.53125" stop-color="rgb(60.98175%, 72.200012%, 84.014893%)" stop-opacity="1"/>
<stop offset="0.539063" stop-color="rgb(61.225891%, 72.434998%, 84.106445%)" stop-opacity="1"/>
<stop offset="0.546875" stop-color="rgb(61.476135%, 72.566223%, 84.147644%)" stop-opacity="1"/>
<stop offset="0.554688" stop-color="rgb(61.724854%, 72.712708%, 84.194946%)" stop-opacity="1"/>
<stop offset="0.5625" stop-color="rgb(61.929321%, 72.917175%, 84.274292%)" stop-opacity="1"/>
<stop offset="0.578125" stop-color="rgb(62.113953%, 73.121643%, 84.355164%)" stop-opacity="1"/>
<stop offset="0.585938" stop-color="rgb(62.341309%, 73.33374%, 84.437561%)" stop-opacity="1"/>
<stop offset="0.59375" stop-color="rgb(62.591553%, 73.461914%, 84.475708%)" stop-opacity="1"/>
<stop offset="0.601563" stop-color="rgb(62.840271%, 73.614502%, 84.526062%)" stop-opacity="1"/>
<stop offset="0.609375" stop-color="rgb(63.087463%, 73.872375%, 84.62677%)" stop-opacity="1"/>
<stop offset="0.617188" stop-color="rgb(63.334656%, 74.145508%, 84.733582%)" stop-opacity="1"/>
<stop offset="0.625" stop-color="rgb(63.581848%, 74.41864%, 84.841919%)" stop-opacity="1"/>
<stop offset="0.640625" stop-color="rgb(63.777161%, 74.635315%, 84.927368%)" stop-opacity="1"/>
<stop offset="0.648438" stop-color="rgb(63.964844%, 74.84436%, 85.00824%)" stop-opacity="1"/>
<stop offset="0.65625" stop-color="rgb(64.204407%, 75.061035%, 85.089111%)" stop-opacity="1"/>
<stop offset="0.664063" stop-color="rgb(64.456177%, 75.184631%, 85.125732%)" stop-opacity="1"/>
<stop offset="0.671875" stop-color="rgb(64.706421%, 75.349426%, 85.179138%)" stop-opacity="1"/>
<stop offset="0.679688" stop-color="rgb(64.955139%, 75.570679%, 85.261536%)" stop-opacity="1"/>
<stop offset="0.6875" stop-color="rgb(65.206909%, 75.691223%, 85.295105%)" stop-opacity="1"/>
<stop offset="0.695313" stop-color="rgb(65.458679%, 75.85907%, 85.351562%)" stop-opacity="1"/>
<stop offset="0.703125" stop-color="rgb(65.646362%, 76.119995%, 85.456848%)" stop-opacity="1"/>
<stop offset="0.71875" stop-color="rgb(65.835571%, 76.382446%, 85.56366%)" stop-opacity="1"/>
<stop offset="0.726563" stop-color="rgb(66.08429%, 76.609802%, 85.647583%)" stop-opacity="1"/>
<stop offset="0.734375" stop-color="rgb(66.33606%, 76.837158%, 85.731506%)" stop-opacity="1"/>
<stop offset="0.742188" stop-color="rgb(66.586304%, 77.11792%, 85.839844%)" stop-opacity="1"/>
<stop offset="0.75" stop-color="rgb(66.8396%, 77.340698%, 85.920715%)" stop-opacity="1"/>
<stop offset="0.765625" stop-color="rgb(67.08374%, 77.568054%, 86.004639%)" stop-opacity="1"/>
<stop offset="0.773438" stop-color="rgb(67.272949%, 77.841187%, 86.114502%)" stop-opacity="1"/>
<stop offset="0.78125" stop-color="rgb(67.469788%, 78.109741%, 86.221313%)" stop-opacity="1"/>
<stop offset="0.789063" stop-color="rgb(67.723083%, 78.392029%, 86.329651%)" stop-opacity="1"/>
<stop offset="0.796875" stop-color="rgb(67.976379%, 78.613281%, 86.408997%)" stop-opacity="1"/>
<stop offset="0.804688" stop-color="rgb(68.231201%, 78.735352%, 86.442566%)" stop-opacity="1"/>
<stop offset="0.8125" stop-color="rgb(68.484497%, 78.924561%, 86.505127%)" stop-opacity="1"/>
<stop offset="0.820313" stop-color="rgb(68.739319%, 79.142761%, 86.582947%)" stop-opacity="1"/>
<stop offset="0.828125" stop-color="rgb(68.97583%, 79.26178%, 86.616516%)" stop-opacity="1"/>
<stop offset="0.84375" stop-color="rgb(69.168091%, 79.476929%, 86.697388%)" stop-opacity="1"/>
<stop offset="0.859375" stop-color="rgb(69.355774%, 79.801941%, 86.830139%)" stop-opacity="1"/>
<stop offset="0.867188" stop-color="rgb(69.548035%, 80.091858%, 86.946106%)" stop-opacity="1"/>
<stop offset="0.875" stop-color="rgb(69.761658%, 80.369568%, 87.055969%)" stop-opacity="1"/>
<stop offset="0.882813" stop-color="rgb(70.016479%, 80.659485%, 87.164307%)" stop-opacity="1"/>
<stop offset="0.890625" stop-color="rgb(70.272827%, 80.873108%, 87.239075%)" stop-opacity="1"/>
<stop offset="0.898438" stop-color="rgb(70.529175%, 80.975342%, 87.261963%)" stop-opacity="1"/>
<stop offset="0.90625" stop-color="rgb(70.785522%, 81.045532%, 87.268066%)" stop-opacity="1"/>
<stop offset="0.914063" stop-color="rgb(70.948792%, 81.170654%, 87.310791%)" stop-opacity="1"/>
<stop offset="0.921875" stop-color="rgb(71.014404%, 81.352234%, 87.388611%)" stop-opacity="1"/>
<stop offset="0.929688" stop-color="rgb(71.173096%, 81.480408%, 87.432861%)" stop-opacity="1"/>
<stop offset="0.9375" stop-color="rgb(71.429443%, 81.634521%, 87.478638%)" stop-opacity="1"/>
<stop offset="0.945313" stop-color="rgb(71.685791%, 81.900024%, 87.574768%)" stop-opacity="1"/>
<stop offset="0.953125" stop-color="rgb(71.943665%, 82.194519%, 87.686157%)" stop-opacity="1"/>
<stop offset="0.960938" stop-color="rgb(72.201538%, 82.402039%, 87.756348%)" stop-opacity="1"/>
<stop offset="0.96875" stop-color="rgb(72.422791%, 82.519531%, 87.788391%)" stop-opacity="1"/>
<stop offset="0.976562" stop-color="rgb(72.512817%, 82.69043%, 87.858582%)" stop-opacity="1"/>
<stop offset="0.984375" stop-color="rgb(72.616577%, 82.943726%, 87.963867%)" stop-opacity="1"/>
<stop offset="1" stop-color="rgb(72.810364%, 83.184814%, 88.05542%)" stop-opacity="1"/>
</linearGradient>
<clipPath id="clip-7">
<path clip-rule="nonzero" d="M 1105 1658 L 2375 1658 L 2375 2228 L 1105 2228 Z M 1105 1658 "/>
</clipPath>
<clipPath id="clip-8">
<path clip-rule="nonzero" d="M 1105.878906 2227.539062 C 1105.320312 2225.019531 1105.011719 2222.351562 1105.011719 2219.53125 C 1104.988281 2208.449219 1109.539062 2194.949219 1120.71875 2178.550781 C 1120.71875 2178.550781 1367.179688 1850.628906 1528.191406 1722.589844 C 1528.191406 1722.589844 1584.878906 1670.660156 1644.621094 1666.089844 C 1652.140625 1665.441406 1660.789062 1664.941406 1670.460938 1664.460938 C 1672.878906 1664.289062 1675.339844 1664.121094 1677.941406 1663.960938 L 1679.429688 1663.960938 C 1745.230469 1660.699219 1850.058594 1658.738281 1963.078125 1658.570312 C 2115.929688 1659.058594 2279.101562 1664.460938 2374.628906 1676.699219 C 2303.910156 1708.378906 2229.921875 1740.230469 2153.660156 1772.410156 L 1940.710938 1772.410156 C 1805.328125 1772.410156 1811.828125 1862.21875 1811.828125 1862.21875 L 1811.828125 1914.160156 C 1780.179688 1927.378906 1748.660156 1940.449219 1716.980469 1953.519531 L 1716.980469 1775.179688 C 1713.128906 1775 1709.328125 1774.910156 1705.578125 1774.910156 C 1595.460938 1774.910156 1531.761719 1851.28125 1531.761719 1851.28125 L 1295.960938 2136.261719 C 1230.148438 2166.460938 1166.640625 2197.011719 1105.878906 2227.539062 "/>
</clipPath>
<clipPath id="clip-9">
<path clip-rule="nonzero" d="M 1105.878906 2227.539062 C 1105.320312 2225.019531 1105.011719 2222.351562 1105.011719 2219.53125 C 1104.988281 2208.449219 1109.539062 2194.949219 1120.71875 2178.550781 C 1120.71875 2178.550781 1367.179688 1850.628906 1528.191406 1722.589844 C 1528.191406 1722.589844 1584.878906 1670.660156 1644.621094 1666.089844 C 1652.140625 1665.441406 1660.789062 1664.941406 1670.460938 1664.460938 C 1672.878906 1664.289062 1675.339844 1664.121094 1677.941406 1663.960938 L 1679.429688 1663.960938 C 1745.230469 1660.699219 1850.058594 1658.738281 1963.078125 1658.570312 C 2115.929688 1659.058594 2279.101562 1664.460938 2374.628906 1676.699219 C 2303.910156 1708.378906 2229.921875 1740.230469 2153.660156 1772.410156 L 1940.710938 1772.410156 C 1805.328125 1772.410156 1811.828125 1862.21875 1811.828125 1862.21875 L 1811.828125 1914.160156 C 1780.179688 1927.378906 1748.660156 1940.449219 1716.980469 1953.519531 L 1716.980469 1775.179688 C 1713.128906 1775 1709.328125 1774.910156 1705.578125 1774.910156 C 1595.460938 1774.910156 1531.761719 1851.28125 1531.761719 1851.28125 L 1295.960938 2136.261719 C 1230.148438 2166.460938 1166.640625 2197.011719 1105.878906 2227.539062 "/>
</clipPath>
<linearGradient id="linear-pattern-2" gradientUnits="userSpaceOnUse" x1="-0.0148443" y1="0" x2="0.990674" y2="0" gradientTransform="matrix(-1028.81, 849.179, -849.179, -1028.81, 2239.39, 1525.83)">
<stop offset="0" stop-color="rgb(68.69812%, 79.917908%, 89.489746%)" stop-opacity="1"/>
<stop offset="0.125" stop-color="rgb(68.69812%, 79.917908%, 89.489746%)" stop-opacity="1"/>
<stop offset="0.1875" stop-color="rgb(68.69812%, 79.917908%, 89.489746%)" stop-opacity="1"/>
<stop offset="0.21875" stop-color="rgb(68.69812%, 79.917908%, 89.489746%)" stop-opacity="1"/>
<stop offset="0.234375" stop-color="rgb(68.69812%, 79.917908%, 89.489746%)" stop-opacity="1"/>
<stop offset="0.242188" stop-color="rgb(68.696594%, 80.029297%, 89.489746%)" stop-opacity="1"/>
<stop offset="0.246094" stop-color="rgb(68.695068%, 80.345154%, 89.485168%)" stop-opacity="1"/>
<stop offset="0.25" stop-color="rgb(68.693542%, 80.551147%, 89.482117%)" stop-opacity="1"/>
<stop offset="0.257813" stop-color="rgb(68.814087%, 80.487061%, 89.437866%)" stop-opacity="1"/>
<stop offset="0.265625" stop-color="rgb(69.004822%, 80.378723%, 89.36615%)" stop-opacity="1"/>
<stop offset="0.28125" stop-color="rgb(69.076538%, 80.421448%, 89.294434%)" stop-opacity="1"/>
<stop offset="0.289063" stop-color="rgb(69.110107%, 80.59082%, 89.268494%)" stop-opacity="1"/>
<stop offset="0.292969" stop-color="rgb(69.264221%, 80.714417%, 89.500427%)" stop-opacity="1"/>
<stop offset="0.296875" stop-color="rgb(69.386292%, 80.755615%, 89.712524%)" stop-opacity="1"/>
<stop offset="0.304688" stop-color="rgb(69.506836%, 80.863953%, 89.741516%)" stop-opacity="1"/>
<stop offset="0.3125" stop-color="rgb(69.732666%, 81.098938%, 89.718628%)" stop-opacity="1"/>
<stop offset="0.328125" stop-color="rgb(69.976807%, 81.411743%, 89.596558%)" stop-opacity="1"/>
<stop offset="0.332031" stop-color="rgb(70.358276%, 81.661987%, 89.532471%)" stop-opacity="1"/>
<stop offset="0.335938" stop-color="rgb(70.599365%, 81.729126%, 89.541626%)" stop-opacity="1"/>
<stop offset="0.34375" stop-color="rgb(70.599365%, 81.83136%, 89.486694%)" stop-opacity="1"/>
<stop offset="0.359375" stop-color="rgb(70.776367%, 82.038879%, 89.405823%)" stop-opacity="1"/>
<stop offset="0.367188" stop-color="rgb(70.965576%, 82.058716%, 89.430237%)" stop-opacity="1"/>
<stop offset="0.375" stop-color="rgb(70.980835%, 81.968689%, 89.549255%)" stop-opacity="1"/>
<stop offset="0.378906" stop-color="rgb(70.980835%, 82.173157%, 89.717102%)" stop-opacity="1"/>
<stop offset="0.382813" stop-color="rgb(70.980835%, 82.385254%, 89.81781%)" stop-opacity="1"/>
<stop offset="0.390625" stop-color="rgb(70.980835%, 82.440186%, 89.84375%)" stop-opacity="1"/>
<stop offset="0.40625" stop-color="rgb(71.124268%, 82.411194%, 89.816284%)" stop-opacity="1"/>
<stop offset="0.414063" stop-color="rgb(71.388245%, 82.383728%, 89.778137%)" stop-opacity="1"/>
<stop offset="0.421875" stop-color="rgb(71.627808%, 82.574463%, 89.846802%)" stop-opacity="1"/>
<stop offset="0.4375" stop-color="rgb(71.80481%, 82.772827%, 89.875793%)" stop-opacity="1"/>
<stop offset="0.445312" stop-color="rgb(71.983337%, 82.974243%, 89.7995%)" stop-opacity="1"/>
<stop offset="0.449219" stop-color="rgb(72.229004%, 83.161926%, 89.93988%)" stop-opacity="1"/>
<stop offset="0.453125" stop-color="rgb(72.351074%, 83.21228%, 90.130615%)" stop-opacity="1"/>
<stop offset="0.460938" stop-color="rgb(72.473145%, 83.251953%, 90.2771%)" stop-opacity="1"/>
<stop offset="0.46875" stop-color="rgb(72.717285%, 83.326721%, 90.426636%)" stop-opacity="1"/>
<stop offset="0.476562" stop-color="rgb(72.961426%, 83.479309%, 90.475464%)" stop-opacity="1"/>
<stop offset="0.484375" stop-color="rgb(73.184204%, 83.709717%, 90.585327%)" stop-opacity="1"/>
<stop offset="0.492188" stop-color="rgb(73.280334%, 83.827209%, 90.759277%)" stop-opacity="1"/>
<stop offset="0.5" stop-color="rgb(73.358154%, 83.856201%, 90.975952%)" stop-opacity="1"/>
<stop offset="0.507813" stop-color="rgb(73.558044%, 83.929443%, 91.188049%)" stop-opacity="1"/>
<stop offset="0.515625" stop-color="rgb(73.803711%, 84.114075%, 91.236877%)" stop-opacity="1"/>
<stop offset="0.523438" stop-color="rgb(73.989868%, 84.429932%, 91.265869%)" stop-opacity="1"/>
<stop offset="0.527344" stop-color="rgb(74.055481%, 84.829712%, 91.555786%)" stop-opacity="1"/>
<stop offset="0.53125" stop-color="rgb(74.057007%, 85.049438%, 91.764832%)" stop-opacity="1"/>
<stop offset="0.546875" stop-color="rgb(74.101257%, 85.037231%, 91.76178%)" stop-opacity="1"/>
<stop offset="0.5625" stop-color="rgb(74.293518%, 85.023499%, 91.743469%)" stop-opacity="1"/>
<stop offset="0.578125" stop-color="rgb(74.59259%, 85.148621%, 91.775513%)" stop-opacity="1"/>
<stop offset="0.582031" stop-color="rgb(74.949646%, 85.33783%, 91.903687%)" stop-opacity="1"/>
<stop offset="0.585938" stop-color="rgb(75.152588%, 85.398865%, 91.983032%)" stop-opacity="1"/>
<stop offset="0.589844" stop-color="rgb(75.37384%, 85.47821%, 92.085266%)" stop-opacity="1"/>
<stop offset="0.59375" stop-color="rgb(75.595093%, 85.55603%, 92.189026%)" stop-opacity="1"/>
<stop offset="0.609375" stop-color="rgb(75.663757%, 85.670471%, 92.080688%)" stop-opacity="1"/>
<stop offset="0.625" stop-color="rgb(75.856018%, 85.813904%, 91.972351%)" stop-opacity="1"/>
<stop offset="0.640625" stop-color="rgb(76.156616%, 85.958862%, 92.012024%)" stop-opacity="1"/>
<stop offset="0.648438" stop-color="rgb(76.350403%, 86.170959%, 92.094421%)" stop-opacity="1"/>
<stop offset="0.65625" stop-color="rgb(76.374817%, 86.376953%, 92.189026%)" stop-opacity="1"/>
<stop offset="0.671875" stop-color="rgb(76.464844%, 86.653137%, 92.311096%)" stop-opacity="1"/>
<stop offset="0.6875" stop-color="rgb(76.660156%, 86.853027%, 92.38739%)" stop-opacity="1"/>
<stop offset="0.703125" stop-color="rgb(76.96228%, 87.104797%, 92.30957%)" stop-opacity="1"/>
<stop offset="0.71875" stop-color="rgb(77.210999%, 87.30011%, 92.298889%)" stop-opacity="1"/>
<stop offset="0.722656" stop-color="rgb(77.383423%, 87.210083%, 92.549133%)" stop-opacity="1"/>
<stop offset="0.726562" stop-color="rgb(77.505493%, 87.14447%, 92.723083%)" stop-opacity="1"/>
<stop offset="0.730469" stop-color="rgb(77.526855%, 87.321472%, 92.741394%)" stop-opacity="1"/>
<stop offset="0.734375" stop-color="rgb(77.546692%, 87.495422%, 92.76123%)" stop-opacity="1"/>
<stop offset="0.75" stop-color="rgb(77.705383%, 87.554932%, 92.695618%)" stop-opacity="1"/>
<stop offset="0.757813" stop-color="rgb(77.903748%, 87.747192%, 92.611694%)" stop-opacity="1"/>
<stop offset="0.765625" stop-color="rgb(77.961731%, 88.05542%, 92.597961%)" stop-opacity="1"/>
<stop offset="0.78125" stop-color="rgb(78.155518%, 88.128662%, 92.69104%)" stop-opacity="1"/>
<stop offset="0.789063" stop-color="rgb(78.33252%, 88.035583%, 92.784119%)" stop-opacity="1"/>
<stop offset="0.792969" stop-color="rgb(78.587341%, 88.223267%, 92.848206%)" stop-opacity="1"/>
<stop offset="0.796875" stop-color="rgb(78.83606%, 88.407898%, 92.910767%)" stop-opacity="1"/>
<stop offset="0.8125" stop-color="rgb(78.971863%, 88.508606%, 92.944336%)" stop-opacity="1"/>
<stop offset="0.828125" stop-color="rgb(79.148865%, 88.656616%, 92.997742%)" stop-opacity="1"/>
<stop offset="0.835938" stop-color="rgb(79.315186%, 88.851929%, 93.07251%)" stop-opacity="1"/>
<stop offset="0.84375" stop-color="rgb(79.563904%, 88.981628%, 93.109131%)" stop-opacity="1"/>
<stop offset="0.859375" stop-color="rgb(79.785156%, 88.900757%, 93.051147%)" stop-opacity="1"/>
<stop offset="0.867188" stop-color="rgb(79.885864%, 88.978577%, 93.077087%)" stop-opacity="1"/>
<stop offset="0.871094" stop-color="rgb(79.901123%, 89.324951%, 93.237305%)" stop-opacity="1"/>
<stop offset="0.875" stop-color="rgb(79.91333%, 89.532471%, 93.333435%)" stop-opacity="1"/>
<stop offset="0.882813" stop-color="rgb(80.033875%, 89.457703%, 93.286133%)" stop-opacity="1"/>
<stop offset="0.890625" stop-color="rgb(80.279541%, 89.471436%, 93.269348%)" stop-opacity="1"/>
<stop offset="0.894531" stop-color="rgb(80.534363%, 89.819336%, 93.408203%)" stop-opacity="1"/>
<stop offset="0.898438" stop-color="rgb(80.664062%, 90.081787%, 93.516541%)" stop-opacity="1"/>
<stop offset="0.90625" stop-color="rgb(80.786133%, 90.036011%, 93.484497%)" stop-opacity="1"/>
<stop offset="0.914063" stop-color="rgb(81.027222%, 89.91394%, 93.403625%)" stop-opacity="1"/>
<stop offset="0.921875" stop-color="rgb(81.268311%, 89.762878%, 93.312073%)" stop-opacity="1"/>
<stop offset="0.929688" stop-color="rgb(81.420898%, 89.845276%, 93.247986%)" stop-opacity="1"/>
<stop offset="0.933594" stop-color="rgb(81.455994%, 90.171814%, 93.223572%)" stop-opacity="1"/>
<stop offset="0.9375" stop-color="rgb(81.462097%, 90.344238%, 93.212891%)" stop-opacity="1"/>
<stop offset="0.953125" stop-color="rgb(81.541443%, 90.30304%, 93.331909%)" stop-opacity="1"/>
<stop offset="0.957031" stop-color="rgb(81.729126%, 90.209961%, 93.611145%)" stop-opacity="1"/>
<stop offset="0.960938" stop-color="rgb(81.838989%, 90.159607%, 93.772888%)" stop-opacity="1"/>
<stop offset="0.96875" stop-color="rgb(81.843567%, 90.266418%, 93.710327%)" stop-opacity="1"/>
<stop offset="0.976563" stop-color="rgb(81.851196%, 90.539551%, 93.612671%)" stop-opacity="1"/>
<stop offset="0.980469" stop-color="rgb(81.864929%, 90.925598%, 93.566895%)" stop-opacity="1"/>
<stop offset="0.984375" stop-color="rgb(81.871033%, 91.145325%, 93.556213%)" stop-opacity="1"/>
<stop offset="1" stop-color="rgb(81.915283%, 91.040039%, 93.496704%)" stop-opacity="1"/>
</linearGradient>
</defs>
<g clip-path="url(#clip-0)">
<path fill-rule="nonzero" fill="rgb(100%, 100%, 100%)" fill-opacity="1" d="M 0 4976.28125 L 4984 4976.28125 L 4984 0 L 0 0 Z M 0 4976.28125 "/>
</g>
<path fill-rule="nonzero" fill="rgb(47.755432%, 48.338318%, 48.33374%)" fill-opacity="1" d="M 2565.941406 3605.640625 C 1495.371094 3605.640625 627.515625 3569.421875 627.515625 3524.738281 C 627.515625 3480.058594 1495.371094 3443.839844 2565.941406 3443.839844 C 3636.5 3443.839844 4504.429688 3480.058594 4504.429688 3524.738281 C 4504.429688 3569.421875 3636.5 3605.640625 2565.941406 3605.640625 "/>
<path fill-rule="nonzero" fill="rgb(77.622986%, 77.160645%, 75.952148%)" fill-opacity="1" d="M 4387.621094 1641.558594 L 4288.089844 1639.828125 L 2680.300781 1611.730469 L 2604.28125 1610.421875 L 1630.390625 1593.390625 C 1630.390625 1593.390625 1762.480469 1397.589844 2007.890625 1381.199219 L 4183.53125 1465.691406 C 4183.53125 1465.691406 4248.828125 1473.519531 4313.109375 1534.808594 C 4333.578125 1554.320312 4353.910156 1579.238281 4371.96875 1611.03125 C 4376.371094 1618.691406 4380.601562 1626.78125 4384.671875 1635.28125 C 4385.671875 1637.328125 4386.660156 1639.449219 4387.621094 1641.558594 "/>
<path fill-rule="nonzero" fill="rgb(19.261169%, 21.290588%, 31.373596%)" fill-opacity="1" d="M 1110.019531 3498.851562 C 926.167969 3498.851562 777.089844 3345.078125 777.089844 3155.421875 C 777.089844 2965.769531 926.167969 2811.988281 1110.019531 2811.988281 L 1222.078125 2811.988281 L 1222.078125 3498.839844 L 1110.019531 3498.851562 "/>
<path fill-rule="nonzero" fill="rgb(13.035583%, 13.883972%, 19.366455%)" fill-opacity="1" d="M 1531.921875 3155.398438 C 1531.921875 3345.078125 1382.820312 3498.839844 1198.96875 3498.839844 C 1015.101562 3498.839844 866.023438 3345.078125 866.023438 3155.398438 C 866.023438 2965.730469 1015.101562 2811.980469 1198.96875 2811.980469 C 1382.820312 2811.980469 1531.921875 2965.730469 1531.921875 3155.398438 "/>
<path fill-rule="nonzero" fill="rgb(77.622986%, 77.160645%, 75.952148%)" fill-opacity="1" d="M 4381.78125 3207 L 2680.308594 3207 L 2680.308594 1508.058594 L 4174.820312 1508.058594 C 4174.820312 1508.058594 4350.378906 1486.679688 4407.539062 1696.730469 C 4407.539062 1696.730469 4464.699219 2225.898438 4456.519531 3061.320312 C 4456.519531 3061.320312 4462.171875 3147.378906 4381.78125 3207 "/>
<path fill-rule="nonzero" fill="rgb(98.066711%, 97.518921%, 94.480896%)" fill-opacity="1" d="M 740.058594 3207 L 2193 3207 L 2192.539062 1509.769531 L 1860.949219 1509.769531 C 1860.949219 1509.769531 1703.289062 1482.191406 1581.691406 1648.878906 L 1047 2259.320312 L 593.0625 2519.390625 C 593.0625 2519.390625 564.59375 2539.890625 554.96875 2623.570312 L 520.761719 2756.25 L 479.957031 2829.730469 C 479.957031 2829.730469 458.46875 3092.828125 740.058594 3207 "/>
<path fill-rule="nonzero" fill="rgb(98.066711%, 97.518921%, 94.480896%)" fill-opacity="1" d="M 2539.039062 1509.351562 L 2382.429688 1509.351562 C 2382.429688 1509.351562 2267.660156 1503.730469 2228.628906 1521.328125 C 2206.5 1531.308594 2135.019531 1540.5 2063.539062 1605.429688 C 2049.019531 1615.640625 1998.71875 1670.171875 1984.921875 1689.078125 L 1490.878906 2253.121094 L 1479.960938 2262.25 L 1052.410156 2507.199219 C 1052.410156 2507.199219 1024.109375 2531.03125 1000.609375 2597.949219 C 998.394531 2604.269531 989.445312 2634.109375 987.789062 2641.800781 L 969.464844 2724.769531 L 942.265625 2799.101562 C 942.265625 2799.101562 891.953125 3149.5 1032.75 3206.578125 L 2539.269531 3206.578125 L 2539.039062 1509.351562 "/>
<path fill-rule="nonzero" fill="rgb(98.066711%, 97.518921%, 94.480896%)" fill-opacity="1" d="M 1463.589844 2614.449219 L 1356.449219 3207 L 2916.550781 3207 L 2916.550781 1509.769531 L 2769.601562 1509.769531 C 2769.601562 1509.769531 2611.941406 1482.191406 2490.339844 1648.871094 L 1955.671875 2259.320312 L 1542.761719 2495.871094 C 1542.761719 2495.871094 1481.570312 2530.980469 1463.589844 2614.449219 "/>
<path fill-rule="nonzero" fill="rgb(86.042786%, 85.568237%, 84.896851%)" fill-opacity="1" d="M 2806.699219 1491.261719 L 4153.398438 1555.761719 C 4153.398438 1555.761719 4272.921875 1535.410156 4326.898438 1735.289062 C 4326.898438 1735.289062 4380.859375 2238.890625 4373.148438 3033.890625 C 4373.148438 3033.890625 4376.648438 3089.230469 4335.730469 3140.449219 L 1466.910156 3140.449219 L 1547.03125 2668.460938 C 1559.570312 2587.691406 1651.300781 2528.730469 1651.300781 2528.730469 L 2011.660156 2265.121094 L 2605.300781 1609.269531 C 2605.300781 1609.269531 2714.160156 1490.679688 2806.699219 1491.261719 "/>
<path fill-rule="nonzero" fill="rgb(68.225098%, 88.279724%, 94.410706%)" fill-opacity="1" d="M 3037.179688 1720.140625 L 3037.179688 2255.488281 C 3037.179688 2280.960938 3016.441406 2301.859375 2990.980469 2301.859375 L 2117.261719 2301.859375 C 2101.761719 2301.859375 2093.109375 2295.988281 2092.609375 2287.160156 C 2092.300781 2281.621094 2095.230469 2274.589844 2101.898438 2267.25 L 2601.949219 1708.390625 C 2618.960938 1689.289062 2653.578125 1673.769531 2679.039062 1673.769531 L 2990.980469 1673.769531 C 3016.441406 1673.769531 3037.179688 1694.679688 3037.179688 1720.140625 "/>
<path fill-rule="nonzero" fill="rgb(100%, 100%, 100%)" fill-opacity="1" d="M 1899.929688 2301.789062 C 1001.738281 2375.519531 1072.78125 2229.898438 1059.898438 2244.609375 L 732.039062 2437.378906 C 938.796875 2575.398438 1408.328125 2489.960938 1408.328125 2489.960938 C 1408.328125 2489.960938 1699.859375 2501.839844 1899.929688 2301.789062 "/>
<path fill-rule="nonzero" fill="rgb(94.586182%, 52.404785%, 7.540894%)" fill-opacity="1" d="M 1339.53125 2502.648438 C 1342.53125 2502.359375 1485.578125 2490.910156 1485.578125 2490.910156 C 1485.578125 2490.910156 1527.308594 2478.628906 1515.488281 2541.070312 L 1485.578125 2624.75 C 1485.578125 2624.75 1475.628906 2655.488281 1428.570312 2657.058594 L 1268.039062 2657.058594 C 1268.039062 2657.058594 1216 2661.761719 1227.820312 2624.75 L 1277.421875 2541.289062 C 1277.421875 2541.289062 1292.941406 2506.988281 1339.53125 2502.648438 "/>
<path fill-rule="nonzero" fill="rgb(92.671204%, 72.363281%, 12.913513%)" fill-opacity="1" d="M 1485.578125 2490.910156 C 1485.578125 2490.910156 1480.359375 2491.339844 1471.949219 2492.011719 C 1470.730469 2495.410156 1469.511719 2498.839844 1467.878906 2502.148438 C 1454.820312 2528.640625 1437.628906 2551.839844 1413.730469 2569.710938 C 1361.78125 2608.550781 1293.949219 2620.800781 1230.128906 2620.890625 L 1227.820312 2624.75 C 1216 2661.761719 1268.039062 2657.058594 1268.039062 2657.058594 L 1428.570312 2657.058594 C 1475.628906 2655.488281 1485.578125 2624.75 1485.578125 2624.75 L 1515.488281 2541.070312 C 1527.308594 2478.628906 1485.578125 2490.910156 1485.578125 2490.910156 "/>
<path fill-rule="nonzero" fill="rgb(19.261169%, 21.290588%, 31.373596%)" fill-opacity="1" d="M 763.46875 2501.910156 L 1186.75 2501.910156 C 1186.75 2501.910156 1222.488281 2498.878906 1218.648438 2525.160156 L 1186.75 2621.878906 C 1186.75 2621.878906 1182.109375 2656.890625 1120.859375 2657.238281 L 733.007812 2657.238281 C 733.007812 2657.238281 676.390625 2659.148438 684.273438 2625.71875 L 715.117188 2531.53125 C 715.117188 2531.53125 726.707031 2501.800781 763.46875 2501.910156 "/>
<path fill-rule="nonzero" fill="rgb(100%, 100%, 100%)" fill-opacity="1" d="M 1217.539062 2528.730469 L 716.492188 2528.730469 C 715.519531 2530.539062 715.207031 2531.511719 715.207031 2531.511719 L 710.777344 2545.078125 L 1212.140625 2545.078125 L 1217.539062 2528.730469 "/>
<path fill-rule="nonzero" fill="rgb(100%, 100%, 100%)" fill-opacity="1" d="M 1203.488281 2571.359375 L 702.144531 2571.359375 L 696.722656 2587.691406 L 1198.109375 2587.691406 L 1203.488281 2571.359375 "/>
<path fill-rule="nonzero" fill="rgb(100%, 100%, 100%)" fill-opacity="1" d="M 1189.609375 2613.179688 L 688.410156 2613.179688 L 684.320312 2625.75 C 684.003906 2627.058594 683.824219 2628.359375 683.664062 2629.511719 L 1184.238281 2629.511719 L 1189.609375 2613.179688 "/>
<path fill-rule="nonzero" fill="rgb(81.785583%, 15.679932%, 20.639038%)" fill-opacity="1" d="M 2142.269531 2835.179688 L 2142.269531 2758.960938 L 519.269531 2758.960938 L 479.957031 2829.730469 C 479.957031 2829.730469 479.796875 2831.730469 479.570312 2835.179688 L 2142.269531 2835.179688 "/>
<path fill-rule="nonzero" fill="rgb(60.417175%, 10.452271%, 12.501526%)" fill-opacity="1" d="M 4457.039062 2993.46875 L 1395.058594 2993.46875 L 1356.449219 3207 L 4381.78125 3207 C 4462.171875 3147.378906 4456.519531 3061.320312 4456.519531 3061.320312 C 4456.769531 3038.429688 4456.910156 3015.898438 4457.039062 2993.46875 "/>
<path fill-rule="nonzero" fill="rgb(60.417175%, 10.452271%, 12.501526%)" fill-opacity="1" d="M 482.914062 2993.050781 C 490.824219 3068.988281 510.164062 3154.019531 554.96875 3207 L 2007.910156 3207 L 2007.910156 2993.050781 L 482.914062 2993.050781 "/>
<path fill-rule="nonzero" fill="rgb(19.261169%, 21.290588%, 31.373596%)" fill-opacity="1" d="M 600.539062 2897.890625 L 1090.46875 2897.890625 C 1090.46875 2897.890625 1153.121094 2895.058594 1168.039062 2944.050781 L 1195.898438 3072.609375 C 1195.898438 3072.609375 1229.308594 3156.371094 1168.039062 3161.789062 L 616.875 3161.789062 C 616.875 3161.789062 556.980469 3183.570312 546.066406 3123.691406 L 527.042969 2971.28125 C 527.042969 2971.28125 527.042969 2897.910156 600.539062 2897.890625 "/>
<path fill-rule="nonzero" fill="rgb(19.261169%, 21.290588%, 31.373596%)" fill-opacity="1" d="M 1421.339844 3128.328125 C 1421.339844 3141.089844 1411.011719 3151.410156 1398.25 3151.410156 L 1282.730469 3151.410156 C 1270 3151.410156 1259.679688 3141.089844 1259.679688 3128.328125 L 1242.890625 3054.828125 C 1242.890625 3042.089844 1253.238281 3031.761719 1265.980469 3031.761719 L 1381.480469 3031.761719 C 1394.25 3031.761719 1404.578125 3042.089844 1404.578125 3054.828125 L 1421.339844 3128.328125 "/>
<g clip-path="url(#clip-1)">
<g clip-path="url(#clip-2)">
<g clip-path="url(#clip-3)">
<path fill-rule="nonzero" fill="url(#linear-pattern-0)" d="M 3206.785156 2252.121094 L 2962.355469 1418.621094 L 1922.695312 1723.507812 L 2167.125 2557.007812 Z M 3206.785156 2252.121094 "/>
</g>
</g>
</g>
<path fill-rule="nonzero" fill="rgb(19.261169%, 21.290588%, 31.373596%)" fill-opacity="1" d="M 2261.890625 2088.449219 L 2101.898438 2267.289062 C 2084.929688 2286.269531 2091.839844 2301.789062 2117.308594 2301.789062 L 2292.480469 2301.789062 C 2292.070312 2229.960938 2281.230469 2158.03125 2261.890625 2088.449219 "/>
<path fill-rule="nonzero" fill="rgb(13.035583%, 13.883972%, 19.366455%)" fill-opacity="1" d="M 2245.820312 2314.058594 C 2245.820312 2314.058594 2236.421875 2183.53125 2328.609375 2162.5 C 2328.609375 2162.5 2427.820312 2150.039062 2541.828125 2180.148438 C 2541.828125 2180.148438 2589.910156 2189.589844 2580.488281 2237.671875 C 2580.488281 2237.671875 2553.011719 2340.878906 2494.828125 2354.179688 C 2494.828125 2354.179688 2392.980469 2377.421875 2245.820312 2314.058594 "/>
<path fill-rule="nonzero" fill="rgb(83.451843%, 73.208618%, 69.50531%)" fill-opacity="1" d="M 3104.640625 3207 L 3104.640625 1636.199219 L 2710.921875 1636.199219 C 2689.199219 1636.199219 2668.671875 1641.371094 2650.109375 1649.101562 C 2622.28125 1660.691406 2598.859375 1678.03125 2582.378906 1692.46875 C 2565.890625 1706.910156 2556.339844 1718.460938 2556.300781 1718.511719 L 2557.691406 1719.660156 L 2556.351562 1718.449219 L 2051.769531 2278.300781 L 2051.769531 2279 C 2051.769531 2279.121094 2051.78125 2280.71875 2052.441406 2283.058594 C 2053.429688 2286.578125 2055.960938 2291.820312 2062.058594 2296.101562 C 2068.148438 2300.390625 2077.699219 2303.671875 2092.589844 2303.660156 L 2190.738281 2303.660156 L 2190.738281 3207 L 2194.351562 3207 L 2194.351562 2300.058594 L 2092.589844 2300.058594 C 2083.011719 2300.058594 2075.921875 2298.648438 2070.691406 2296.609375 C 2066.761719 2295.070312 2063.871094 2293.179688 2061.730469 2291.230469 C 2058.511719 2288.289062 2056.941406 2285.199219 2056.148438 2282.828125 C 2055.75 2281.648438 2055.558594 2280.660156 2055.460938 2279.980469 C 2055.421875 2279.640625 2055.390625 2279.371094 2055.378906 2279.199219 L 2055.371094 2279.019531 L 2055.371094 2278.988281 L 2054.941406 2279 L 2055.371094 2279 L 2055.371094 2278.988281 L 2054.941406 2279 L 2055.371094 2279 L 2053.570312 2279 L 2054.910156 2280.199219 L 2559.050781 1720.839844 L 2559.078125 1720.808594 L 2559.121094 1720.761719 C 2560.089844 1719.589844 2577.210938 1699.289062 2604.519531 1679.328125 C 2618.171875 1669.351562 2634.371094 1659.460938 2652.351562 1652.078125 C 2670.339844 1644.691406 2690.109375 1639.808594 2710.921875 1639.808594 L 3101.039062 1639.808594 L 3101.039062 3207 L 3104.640625 3207 "/>
<path fill-rule="nonzero" fill="rgb(68.225098%, 88.279724%, 94.410706%)" fill-opacity="1" d="M 2408.550781 1753.589844 L 2391.210938 1772.371094 L 1971.371094 2229.800781 C 1971.371094 2229.800781 1935.921875 2277.011719 1865.039062 2269.171875 L 1811.789062 2269.171875 L 1716.921875 2269.320312 L 1186.96875 2269.980469 C 1186.96875 2269.980469 1186.339844 2269.980469 1185.339844 2269.808594 C 1170.820312 2269.011719 1065.800781 2259.359375 1120.679688 2178.53125 C 1120.679688 2178.53125 1367.109375 1850.589844 1528.121094 1722.570312 C 1528.121094 1722.570312 1584.808594 1670.628906 1644.570312 1666.058594 C 1799.539062 1654.300781 2231.339844 1653.980469 2394.488281 1679.601562 C 2403.960938 1684.339844 2444.449219 1699.210938 2408.550781 1753.589844 "/>
<g clip-path="url(#clip-4)">
<g clip-path="url(#clip-5)">
<g clip-path="url(#clip-6)">
<path fill-rule="nonzero" fill="url(#linear-pattern-1)" d="M 2733.691406 2022.121094 L 1895.203125 1006.261719 L 804.859375 1906.230469 L 1643.347656 2922.089844 Z M 2733.691406 2022.121094 "/>
</g>
</g>
</g>
<path fill-rule="nonzero" fill="rgb(78.125%, 92.848206%, 96.30127%)" fill-opacity="1" d="M 1295.960938 2136.261719 L 1531.761719 1851.28125 C 1531.761719 1851.28125 1595.460938 1774.910156 1705.578125 1774.910156 C 1709.328125 1774.910156 1713.128906 1775 1716.980469 1775.179688 L 1716.980469 1953.519531 C 1573.101562 2013.621094 1430.199219 2074.519531 1295.960938 2136.261719 M 1811.828125 1914.160156 L 1811.828125 1862.21875 C 1811.828125 1862.21875 1805.328125 1772.410156 1940.710938 1772.410156 L 2153.660156 1772.410156 C 2042.769531 1819.109375 1927.628906 1866.308594 1811.828125 1914.160156 "/>
<g clip-path="url(#clip-7)">
<g clip-path="url(#clip-8)">
<g clip-path="url(#clip-9)">
<path fill-rule="nonzero" fill="url(#linear-pattern-2)" d="M 2653.957031 1996.984375 L 1860.152344 1035.261719 L 825.664062 1889.125 L 1619.46875 2850.847656 Z M 2653.957031 1996.984375 "/>
</g>
</g>
</g>
<path fill-rule="nonzero" fill="rgb(60.417175%, 10.452271%, 12.501526%)" fill-opacity="1" d="M 4457.308594 2758.960938 L 2271.46875 2758.960938 L 2271.46875 2835.179688 L 4457.308594 2835.179688 L 4457.308594 2758.960938 "/>
<path fill-rule="nonzero" fill="rgb(60.417175%, 10.452271%, 12.501526%)" fill-opacity="1" d="M 4371.96875 1611.03125 L 2691.328125 1611.03125 L 2691.328125 1534.808594 L 4313.109375 1534.808594 C 4333.578125 1554.320312 4353.910156 1579.238281 4371.96875 1611.03125 "/>
<path fill-rule="nonzero" fill="rgb(12.860107%, 11.213684%, 11.195374%)" fill-opacity="1" d="M 2708.121094 3207 C 2709.910156 3190.890625 2710.921875 3174.511719 2710.921875 3157.898438 C 2710.921875 2920.910156 2524.679688 2728.800781 2294.921875 2728.800781 C 2065.160156 2728.800781 1878.941406 2920.910156 1878.941406 3157.898438 C 1878.941406 3174.511719 1879.960938 3190.890625 1881.738281 3207 L 2708.121094 3207 "/>
<path fill-rule="nonzero" fill="rgb(13.035583%, 13.883972%, 19.366455%)" fill-opacity="1" d="M 2205.96875 3498.851562 C 2022.121094 3498.851562 1873.058594 3345.078125 1873.058594 3155.421875 C 1873.058594 2965.769531 2022.121094 2811.988281 2205.96875 2811.988281 L 2318.078125 2811.988281 L 2318.078125 3498.839844 L 2205.96875 3498.851562 "/>
<path fill-rule="nonzero" fill="rgb(19.261169%, 21.290588%, 31.373596%)" fill-opacity="1" d="M 2627.871094 3155.398438 C 2627.871094 3345.078125 2478.808594 3498.839844 2294.921875 3498.839844 C 2111.03125 3498.839844 1961.988281 3345.078125 1961.988281 3155.398438 C 1961.988281 2965.730469 2111.03125 2811.980469 2294.921875 2811.980469 C 2478.808594 2811.980469 2627.871094 2965.730469 2627.871094 3155.398438 "/>
<path fill-rule="nonzero" fill="rgb(67.277527%, 74.11499%, 84.579468%)" fill-opacity="1" d="M 2519.460938 3155.410156 C 2519.460938 3283.300781 2418.960938 3387.019531 2294.921875 3387.019531 C 2170.878906 3387.019531 2070.378906 3283.300781 2070.378906 3155.410156 C 2070.378906 3027.480469 2170.878906 2923.789062 2294.921875 2923.789062 C 2418.960938 2923.789062 2519.460938 3027.480469 2519.460938 3155.410156 "/>
<path fill-rule="nonzero" fill="rgb(76.130676%, 84.60083%, 89.334106%)" fill-opacity="1" d="M 2392.171875 3155.398438 C 2392.171875 3209.089844 2348.628906 3252.609375 2294.921875 3252.609375 C 2241.238281 3252.609375 2197.699219 3209.089844 2197.699219 3155.398438 C 2197.699219 3101.71875 2241.238281 3058.191406 2294.921875 3058.191406 C 2348.628906 3058.191406 2392.171875 3101.71875 2392.171875 3155.398438 "/>
<path fill-rule="nonzero" fill="rgb(76.130676%, 84.60083%, 89.334106%)" fill-opacity="1" d="M 2121.691406 3155.398438 L 2105.351562 3155.398438 C 2105.351562 3050.890625 2190.398438 2965.859375 2294.921875 2965.859375 L 2294.921875 2982.179688 C 2199.390625 2982.179688 2121.691406 3059.890625 2121.691406 3155.398438 "/>
<path fill-rule="nonzero" fill="rgb(76.130676%, 84.60083%, 89.334106%)" fill-opacity="1" d="M 2294.921875 3344.941406 L 2294.921875 3328.609375 C 2390.421875 3328.609375 2468.148438 3250.929688 2468.148438 3155.398438 L 2484.480469 3155.398438 C 2484.480469 3259.929688 2399.441406 3344.941406 2294.921875 3344.941406 "/>
<path fill-rule="nonzero" fill="rgb(12.860107%, 11.213684%, 11.195374%)" fill-opacity="1" d="M 4217.949219 3207 C 4219.710938 3190.890625 4220.730469 3174.511719 4220.730469 3157.898438 C 4220.730469 2920.910156 4034.488281 2728.800781 3804.75 2728.800781 C 3574.988281 2728.800781 3388.75 2920.910156 3388.75 3157.898438 C 3388.75 3174.511719 3389.761719 3190.890625 3391.550781 3207 L 4217.949219 3207 "/>
<path fill-rule="nonzero" fill="rgb(13.035583%, 13.883972%, 19.366455%)" fill-opacity="1" d="M 3715.800781 3498.851562 C 3531.949219 3498.851562 3382.890625 3345.078125 3382.890625 3155.421875 C 3382.890625 2965.769531 3531.949219 2811.988281 3715.800781 2811.988281 L 3827.878906 2811.988281 L 3827.878906 3498.839844 L 3715.800781 3498.851562 "/>
<path fill-rule="nonzero" fill="rgb(19.261169%, 21.290588%, 31.373596%)" fill-opacity="1" d="M 4137.699219 3155.398438 C 4137.699219 3345.078125 3988.621094 3498.839844 3804.75 3498.839844 C 3620.878906 3498.839844 3471.78125 3345.078125 3471.78125 3155.398438 C 3471.78125 2965.730469 3620.878906 2811.980469 3804.75 2811.980469 C 3988.621094 2811.980469 4137.699219 2965.730469 4137.699219 3155.398438 "/>
<path fill-rule="nonzero" fill="rgb(67.277527%, 74.11499%, 84.579468%)" fill-opacity="1" d="M 4029.289062 3155.410156 C 4029.289062 3283.300781 3928.769531 3387.019531 3804.75 3387.019531 C 3680.710938 3387.019531 3580.210938 3283.300781 3580.210938 3155.410156 C 3580.210938 3027.480469 3680.710938 2923.789062 3804.75 2923.789062 C 3928.769531 2923.789062 4029.289062 3027.480469 4029.289062 3155.410156 "/>
<path fill-rule="nonzero" fill="rgb(76.130676%, 84.60083%, 89.334106%)" fill-opacity="1" d="M 3901.96875 3155.398438 C 3901.96875 3209.089844 3858.460938 3252.609375 3804.75 3252.609375 C 3751.039062 3252.609375 3707.53125 3209.089844 3707.53125 3155.398438 C 3707.53125 3101.71875 3751.039062 3058.191406 3804.75 3058.191406 C 3858.460938 3058.191406 3901.96875 3101.71875 3901.96875 3155.398438 "/>
<path fill-rule="nonzero" fill="rgb(76.130676%, 84.60083%, 89.334106%)" fill-opacity="1" d="M 3631.519531 3155.398438 L 3615.210938 3155.398438 C 3615.210938 3050.890625 3700.230469 2965.859375 3804.75 2965.859375 L 3804.75 2982.179688 C 3709.238281 2982.179688 3631.519531 3059.890625 3631.519531 3155.398438 "/>
<path fill-rule="nonzero" fill="rgb(76.130676%, 84.60083%, 89.334106%)" fill-opacity="1" d="M 3804.75 3344.941406 L 3804.75 3328.609375 C 3900.25 3328.609375 3977.960938 3250.929688 3977.960938 3155.398438 L 3994.308594 3155.398438 C 3994.308594 3259.929688 3909.269531 3344.941406 3804.75 3344.941406 "/>
<path fill-rule="nonzero" fill="rgb(19.261169%, 21.290588%, 31.373596%)" fill-opacity="1" d="M 3030.5 2381.449219 C 3030.5 2393.398438 3022.308594 2403.089844 3012.261719 2403.089844 L 2820.871094 2403.089844 C 2810.789062 2403.089844 2802.589844 2393.398438 2802.589844 2381.449219 C 2802.589844 2369.511719 2810.789062 2359.808594 2820.871094 2359.808594 L 3012.261719 2359.808594 C 3022.308594 2359.808594 3030.5 2369.511719 3030.5 2381.449219 "/>
<path fill-rule="nonzero" fill="rgb(13.035583%, 13.883972%, 19.366455%)" fill-opacity="1" d="M 1217.609375 2275.800781 L 1217.539062 2243.140625 L 1747.488281 2242.480469 L 1747.53125 2275.140625 L 1217.609375 2275.800781 "/>
<path fill-rule="nonzero" fill="rgb(94.586182%, 52.404785%, 7.540894%)" fill-opacity="1" d="M 681.585938 2541.089844 L 651.691406 2624.691406 C 651.691406 2624.691406 641.730469 2655.390625 594.554688 2657.019531 L 546.199219 2657.019531 L 554.855469 2623.558594 C 564.660156 2539.941406 593.085938 2519.371094 593.085938 2519.371094 L 641.097656 2491.921875 C 647.785156 2491.269531 651.691406 2490.941406 651.691406 2490.941406 C 651.691406 2490.941406 693.335938 2478.539062 681.585938 2541.089844 "/>
<path fill-rule="nonzero" fill="rgb(92.671204%, 72.363281%, 12.913513%)" fill-opacity="1" d="M 578.941406 2537.839844 C 570.332031 2553.109375 560.027344 2579.519531 554.855469 2623.558594 L 546.199219 2657.019531 L 594.554688 2657.019531 C 641.730469 2655.390625 651.691406 2624.691406 651.691406 2624.691406 L 658.585938 2605.460938 C 623.382812 2591.519531 592.542969 2567.78125 578.941406 2537.839844 "/>
<path fill-rule="nonzero" fill="rgb(90.707397%, 18.939209%, 24.765015%)" fill-opacity="1" d="M 4457.308594 2863.699219 L 4360.570312 2863.699219 L 4360.570312 2679.789062 L 4457.308594 2679.789062 L 4457.308594 2863.699219 "/>
<path fill-rule="nonzero" fill="rgb(92.671204%, 72.363281%, 12.913513%)" fill-opacity="1" d="M 4292.941406 2863.699219 L 4360.570312 2863.699219 L 4360.570312 2679.789062 L 4292.941406 2679.789062 L 4292.941406 2863.699219 "/>
<path fill-rule="nonzero" fill="rgb(88.912964%, 11.413574%, 14.43634%)" fill-opacity="1" d="M 4137.699219 2084.988281 C 4137.699219 2291.800781 3970.050781 2459.460938 3763.238281 2459.460938 C 3556.421875 2459.460938 3388.75 2291.800781 3388.75 2084.988281 C 3388.75 1878.179688 3556.421875 1710.519531 3763.238281 1710.519531 C 3970.050781 1710.519531 4137.699219 1878.179688 4137.699219 2084.988281 "/>
<path fill-rule="nonzero" fill="rgb(100%, 100%, 100%)" fill-opacity="1" d="M 3835.230469 2347.089844 L 3691.261719 2347.089844 L 3691.261719 1822.878906 L 3835.230469 1822.878906 L 3835.230469 2347.089844 "/>
<path fill-rule="nonzero" fill="rgb(100%, 100%, 100%)" fill-opacity="1" d="M 3501.109375 2156.988281 L 3501.109375 2013.019531 L 4025.339844 2013.019531 L 4025.339844 2156.988281 L 3501.109375 2156.988281 "/>
<path fill-rule="nonzero" fill="rgb(85.429382%, 12.202454%, 14.587402%)" fill-opacity="1" d="M 2599.699219 1513.441406 L 1703.390625 1521.179688 C 1676.191406 1521.410156 1654.199219 1490.390625 1654.269531 1451.890625 C 1654.351562 1413.390625 1676.460938 1381.988281 1703.660156 1381.75 L 2599.96875 1374.011719 L 2599.699219 1513.441406 "/>
<path fill-rule="nonzero" fill="rgb(71.69342%, 11.566162%, 14.025879%)" fill-opacity="1" d="M 1694.078125 1453.820312 C 1678.101562 1453.960938 1664.640625 1439.019531 1660.359375 1418.421875 C 1656.5 1428.378906 1654.300781 1439.78125 1654.269531 1451.890625 C 1654.199219 1490.390625 1676.191406 1521.410156 1703.390625 1521.179688 L 2599.699219 1513.441406 L 2599.828125 1446 L 1694.078125 1453.820312 "/>
<path fill-rule="nonzero" fill="rgb(26.618958%, 8.416748%, 9.458923%)" fill-opacity="1" d="M 2598.300781 1376.378906 L 1703.660156 1384.101562 C 1690.949219 1384.210938 1678.980469 1391.320312 1669.96875 1404.121094 C 1660.949219 1416.921875 1655.96875 1433.878906 1655.941406 1451.878906 C 1655.898438 1469.871094 1660.820312 1486.738281 1669.78125 1499.390625 C 1678.75 1512.03125 1690.679688 1518.949219 1703.398438 1518.828125 L 2598.039062 1511.101562 Z M 1701.941406 1523.511719 C 1688.878906 1523.109375 1676.679688 1515.78125 1667.429688 1502.730469 C 1657.839844 1489.199219 1652.578125 1471.148438 1652.609375 1451.898438 C 1652.648438 1432.660156 1657.980469 1414.511719 1667.621094 1400.820312 C 1677.269531 1387.121094 1690.070312 1379.519531 1703.671875 1379.398438 L 2601.640625 1371.640625 L 2601.359375 1515.769531 L 1703.390625 1523.53125 C 1702.898438 1523.53125 1702.421875 1523.53125 1701.941406 1523.511719 "/>
<path fill-rule="nonzero" fill="rgb(85.429382%, 12.202454%, 14.587402%)" fill-opacity="1" d="M 2523.820312 1514.089844 L 2717.261719 1512.421875 C 2744.46875 1512.179688 2766.578125 1480.78125 2766.648438 1442.28125 C 2766.730469 1403.78125 2744.738281 1372.761719 2717.53125 1372.988281 L 2524.089844 1374.671875 C 2496.890625 1374.898438 2474.769531 1406.300781 2474.699219 1444.800781 C 2474.628906 1483.300781 2496.621094 1514.328125 2523.820312 1514.089844 "/>
<path fill-rule="nonzero" fill="rgb(71.69342%, 11.566162%, 14.025879%)" fill-opacity="1" d="M 2766.648438 1442.28125 C 2766.699219 1420.308594 2759.539062 1400.789062 2748.351562 1388.101562 C 2746.851562 1424.808594 2725.328125 1454.121094 2699.050781 1454.351562 L 2505.601562 1456.019531 C 2493.921875 1456.121094 2483.210938 1450.449219 2474.789062 1440.910156 C 2474.738281 1442.199219 2474.699219 1443.5 2474.699219 1444.800781 C 2474.628906 1483.300781 2496.621094 1514.328125 2523.820312 1514.089844 L 2717.261719 1512.421875 C 2744.46875 1512.179688 2766.578125 1480.78125 2766.648438 1442.28125 "/>
<path fill-rule="nonzero" fill="rgb(26.618958%, 8.416748%, 9.458923%)" fill-opacity="1" d="M 2718.871094 1375.359375 C 2718.421875 1375.351562 2717.980469 1375.339844 2717.53125 1375.351562 L 2524.078125 1377.019531 C 2497.839844 1377.238281 2476.429688 1407.648438 2476.359375 1444.789062 C 2476.328125 1462.78125 2481.238281 1479.660156 2490.210938 1492.300781 C 2499.171875 1504.949219 2511.109375 1511.851562 2523.820312 1511.738281 L 2717.269531 1510.070312 C 2743.511719 1509.839844 2764.921875 1479.441406 2764.988281 1442.300781 C 2765.058594 1405.789062 2744.488281 1376.148438 2718.871094 1375.359375 Z M 2522.359375 1516.429688 C 2509.308594 1516.03125 2497.101562 1508.691406 2487.851562 1495.648438 C 2478.261719 1482.121094 2473 1464.070312 2473.039062 1444.820312 C 2473.121094 1405.078125 2496.019531 1372.558594 2524.089844 1372.308594 L 2717.539062 1370.640625 C 2745.609375 1370.398438 2768.390625 1402.53125 2768.308594 1442.269531 C 2768.238281 1482 2745.328125 1514.53125 2717.261719 1514.769531 L 2523.808594 1516.441406 C 2523.328125 1516.449219 2522.851562 1516.441406 2522.359375 1516.429688 "/>
<path fill-rule="nonzero" fill="rgb(40.805054%, 60.879517%, 84.890747%)" fill-opacity="1" d="M 2197.851562 1452.328125 C 2197.910156 1419.429688 2211.460938 1390.878906 2231.070312 1377.199219 L 2000.171875 1379.191406 C 1982.179688 1393.589844 1969.988281 1420.890625 1969.929688 1452.101562 C 1969.878906 1479.441406 1979.140625 1503.621094 1993.488281 1518.671875 L 2219.441406 1516.71875 C 2206.21875 1501.570312 2197.800781 1478.390625 2197.851562 1452.328125 "/>
<path fill-rule="nonzero" fill="rgb(29.495239%, 47.584534%, 77.415466%)" fill-opacity="1" d="M 2197.851562 1452.328125 C 2197.851562 1451.378906 2197.859375 1450.421875 2197.890625 1449.46875 L 1969.941406 1451.441406 C 1969.941406 1451.660156 1969.929688 1451.878906 1969.929688 1452.101562 C 1969.878906 1479.441406 1979.140625 1503.621094 1993.488281 1518.671875 L 2219.441406 1516.71875 C 2206.21875 1501.570312 2197.800781 1478.390625 2197.851562 1452.328125 "/>
<path fill-rule="nonzero" fill="rgb(10.919189%, 19.044495%, 30.862427%)" fill-opacity="1" d="M 2000.601562 1381.539062 C 1982.75 1396.078125 1971.648438 1423.058594 1971.589844 1452.089844 C 1971.539062 1477.628906 1979.71875 1500.988281 1994.050781 1516.320312 L 2215.03125 1514.410156 C 2202.960938 1498.359375 2196.140625 1476.078125 2196.191406 1452.351562 C 2196.21875 1436 2199.519531 1420.078125 2205.730469 1406.300781 C 2210.601562 1395.511719 2217.070312 1386.398438 2224.660156 1379.601562 Z M 1992.941406 1521.03125 L 1992.5 1520.570312 C 1977.039062 1504.359375 1968.210938 1479.410156 1968.269531 1452.121094 C 1968.328125 1421.179688 1980.238281 1392.460938 1999.359375 1377.148438 L 1999.738281 1376.839844 L 2238.269531 1374.78125 L 2231.789062 1379.300781 C 2211.941406 1393.148438 2199.570312 1421.128906 2199.511719 1452.320312 L 2197.851562 1452.328125 L 2199.511719 1452.320312 C 2199.460938 1476.75 2207.109375 1499.550781 2220.488281 1514.890625 L 2224.101562 1519.03125 L 1992.941406 1521.03125 "/>
</svg>
