<svg width="688" height="365" viewBox="0 0 688 365" fill="none" xmlns="http://www.w3.org/2000/svg">
    <path d="M258.97 219.86C324.772 264.452 441.683 303.445 493.625 283.873C545.566 264.3 515.466 162.801 493.625 133.808C471.784 104.816 397.157 110.273 359.536 114.349C321.916 118.425 193.167 175.268 258.97 219.86Z" stroke="#71BFFB" stroke-width="4"/>
    <path d="M286.691 215.406C337.601 249.965 428.053 280.185 468.24 265.016C508.426 249.847 485.138 171.186 468.24 148.716C451.342 126.247 393.604 130.476 364.498 133.635C335.391 136.794 235.78 180.847 286.691 215.406Z" stroke="#71BFFB" stroke-width="3"/>
    <path d="M313.122 211.117C349.833 236.014 415.056 257.786 444.035 246.858C473.013 235.93 456.219 179.259 444.035 163.072C431.85 146.884 390.215 149.931 369.227 152.207C348.239 154.483 276.411 186.22 313.122 211.117Z" stroke="#71BFFB" stroke-width="2"/>
    <path d="M344.708 206.003C364.449 219.381 399.522 231.079 415.105 225.207C430.688 219.335 421.657 188.886 415.105 180.188C408.553 171.49 386.165 173.127 374.878 174.35C363.592 175.573 324.968 192.626 344.708 206.003Z" stroke="#71BFFB"/>
    <path d="M2 221.003C2 221.003 117.042 184.736 178.168 148.343C239.294 111.95 205.735 97.6461 258.239 68.442C310.743 39.2379 263.456 -16.9602 410.496 19.1157C557.535 55.1916 669.459 169.334 669.459 169.334" stroke="#19B3BD" stroke-width="4" stroke-linecap="round"/>
    <circle cx="650.919" cy="37.0811" r="37.0811" fill="#19B3BD"/>
    <circle cx="95.4435" cy="101.602" r="12.6076" fill="#078FF7"/>
    <circle cx="613.838" cy="285.524" r="4.44973" fill="#078FF7"/>
    <g clip-path="url(#clip0_9320_58780)">
        <path d="M116.015 329.526L107.466 286.503L167.853 106.76L204.511 93.5154L216.117 151.919L194.849 159.603L159.605 265.276L159.959 267.059L289.812 220.143L298.45 263.612L116.015 329.526ZM229.244 329.232L219.1 278.185L216.426 258.962L184.953 100.582L234.436 82.7035L279.796 310.967L229.244 329.232Z" fill="#023154"/>
        <path d="M347.939 276.38C327.636 276.38 310.136 271.569 295.439 261.948C280.742 252.251 269.416 238.35 261.461 220.244C253.507 202.062 249.567 180.206 249.643 154.676C249.719 129.145 253.696 107.479 261.575 89.6755C269.53 71.7967 280.817 58.1982 295.439 48.8801C310.136 39.4861 327.636 34.7891 347.939 34.7891C368.242 34.7891 385.742 39.4861 400.439 48.8801C415.211 58.1982 426.575 71.7967 434.53 89.6755C442.484 107.554 446.423 129.221 446.348 154.676C446.348 180.282 442.37 202.176 434.416 220.357C426.461 238.539 415.136 252.441 400.439 262.062C385.817 271.607 368.317 276.38 347.939 276.38ZM347.939 230.357C360.06 230.357 369.87 224.183 377.37 211.835C384.87 199.41 388.583 180.357 388.507 154.676C388.507 137.857 386.802 123.994 383.393 113.085C379.984 102.1 375.249 93.9179 369.189 88.5391C363.128 83.1604 356.045 80.471 347.939 80.471C335.893 80.471 326.158 86.5694 318.734 98.7664C311.31 110.888 307.56 129.524 307.484 154.676C307.408 171.721 309.037 185.85 312.37 197.062C315.78 208.274 320.552 216.645 326.689 222.176C332.825 227.63 339.908 230.357 347.939 230.357Z" fill="#011B2F"/>
        <path d="M346.456 257.38C326.153 257.38 308.653 252.569 293.956 242.948C279.259 233.251 267.933 219.35 259.979 201.244C252.024 183.062 248.085 161.206 248.161 135.676C248.236 110.145 252.214 88.4785 260.093 70.6755C268.047 52.7967 279.335 39.1982 293.956 29.8801C308.653 20.4861 326.153 15.7891 346.456 15.7891C366.759 15.7891 384.259 20.4861 398.956 29.8801C413.729 39.1982 425.093 52.7967 433.047 70.6755C441.002 88.5543 444.941 110.221 444.865 135.676C444.865 161.282 440.888 183.176 432.933 201.357C424.979 219.539 413.653 233.441 398.956 243.062C384.335 252.607 366.835 257.38 346.456 257.38ZM346.456 211.357C358.577 211.357 368.388 205.183 375.888 192.835C383.388 180.41 387.1 161.357 387.024 135.676C387.024 118.857 385.32 104.994 381.911 94.0846C378.502 83.0997 373.767 74.9179 367.706 69.5391C361.646 64.1604 354.562 61.471 346.456 61.471C334.411 61.471 324.676 67.5694 317.252 79.7664C309.827 91.8876 306.077 110.524 306.002 135.676C305.926 152.721 307.555 166.85 310.888 178.062C314.297 189.274 319.07 197.645 325.206 203.176C331.343 208.63 338.426 211.357 346.456 211.357Z" fill="#078FF7"/>
        <path d="M399.33 264.546L407.879 221.524L526.827 106.575L563.485 119.82L551.879 178.223L530.611 170.539L460.904 238.293L460.55 240.076L590.403 286.992L581.765 330.461L399.33 264.546ZM497.498 340.631L507.642 289.584L512.454 271.134L543.927 112.753L593.41 130.632L548.05 358.896L497.498 340.631Z" fill="#023154"/>
    </g>
    <defs>
        <clipPath id="clip0_9320_58780">
            <rect width="515" height="349" fill="white" transform="translate(90 16)"/>
        </clipPath>
    </defs>
</svg>
