<svg width="213" height="176" viewBox="0 0 213 176" fill="none" xmlns="http://www.w3.org/2000/svg">
    <path d="M7.45752 80.9077V82.7102" stroke="#D2D8DF" stroke-width="2.921" stroke-linecap="round"/>
    <path d="M3.41724 81.8843L4.88733 83.4005" stroke="#D2D8DF" stroke-width="2.921" stroke-linecap="round"/>
    <path d="M1.69775 85.9204H3.77644" stroke="#D2D8DF" stroke-width="2.921" stroke-linecap="round"/>
    <path d="M3.24902 90.0284L4.71912 88.5122" stroke="#D2D8DF" stroke-width="2.921" stroke-linecap="round"/>
    <path d="M7.45752 90.5212V88.7188" stroke="#D2D8DF" stroke-width="2.921" stroke-linecap="round"/>
    <path d="M10.456 89.3193L9.25659 88.1177" stroke="#D2D8DF" stroke-width="2.921" stroke-linecap="round"/>
    <path d="M12.8547 86.3154H11.0557" stroke="#D2D8DF" stroke-width="2.921" stroke-linecap="round"/>
    <path d="M11.6552 82.1094L10.4558 83.311" stroke="#D2D8DF" stroke-width="2.921" stroke-linecap="round"/>
    <path d="M104.007 2.2002V3.40184" stroke="#D2D8DF" stroke-width="2.921" stroke-linecap="round"/>
    <path d="M100.409 5.80518H101.609" stroke="#D2D8DF" stroke-width="2.921" stroke-linecap="round"/>
    <path d="M104.007 9.41014V8.2085" stroke="#D2D8DF" stroke-width="2.921" stroke-linecap="round"/>
    <path d="M107.006 5.80518H105.806" stroke="#D2D8DF" stroke-width="2.921" stroke-linecap="round"/>
    <path d="M34.4434 52.6694V54.4719" stroke="#D2D8DF" stroke-width="2.921" stroke-linecap="round"/>
    <path d="M29.0461 58.0767H30.8452" stroke="#D2D8DF" stroke-width="2.921" stroke-linecap="round"/>
    <path d="M34.4434 62.883V61.0806" stroke="#D2D8DF" stroke-width="2.921" stroke-linecap="round"/>
    <path d="M39.241 58.0767H37.4419" stroke="#D2D8DF" stroke-width="2.921" stroke-linecap="round"/>
    <path d="M163.529 118.183C164.962 118.183 166.124 119.347 166.124 120.784C166.124 122.22 164.962 123.385 163.529 123.385C162.096 123.385 160.934 122.22 160.934 120.784" stroke="#D2D8DF" stroke-width="2.921" stroke-linecap="round"/>
    <path fill-rule="evenodd" clip-rule="evenodd" d="M175.407 94.5847C176.949 94.103 179.311 92.2147 179.858 90.1831C180.353 91.979 182.432 94.103 184.308 94.2637C182.196 95.0127 180.178 97.2377 179.858 98.9857C179.64 97.204 176.848 94.8443 175.407 94.5847Z" fill="#EBECEE"/>
    <path fill-rule="evenodd" clip-rule="evenodd" d="M17.2163 117.381C17.9871 117.14 19.1677 116.196 19.4411 115.181C19.6891 116.078 20.7282 117.14 21.6659 117.221C20.6105 117.595 19.6015 118.708 19.4411 119.582C19.3322 118.691 17.9362 117.511 17.2163 117.381Z" fill="#EBECEE"/>
    <path fill-rule="evenodd" clip-rule="evenodd" d="M31.5204 33.802C31.5204 34.9163 30.6193 35.8188 29.5079 35.8188C28.396 35.8188 27.4954 34.9163 27.4954 33.802C27.4954 32.6882 28.396 31.7852 29.5079 31.7852C30.6193 31.7852 31.5204 32.6882 31.5204 33.802Z" fill="#D1D8DF"/>
    <path fill-rule="evenodd" clip-rule="evenodd" d="M165.907 39.2176C165.907 41.0794 164.4 42.5885 162.543 42.5885C160.685 42.5885 159.179 41.0794 159.179 39.2176C159.179 37.3559 160.685 35.8467 162.543 35.8467C164.4 35.8467 165.907 37.3559 165.907 39.2176Z" fill="#EBECEE"/>
    <path fill-rule="evenodd" clip-rule="evenodd" d="M212.5 30.0841C212.5 31.5612 211.306 32.7581 209.832 32.7581C208.358 32.7581 207.164 31.5612 207.164 30.0841C207.164 28.6071 208.358 27.4102 209.832 27.4102C211.306 27.4102 212.5 28.6071 212.5 30.0841Z" fill="#EBECEE"/>
    <path fill-rule="evenodd" clip-rule="evenodd" d="M69.132 154.97C69.132 155.901 68.379 156.656 67.4499 156.656C66.5213 156.656 65.7683 155.901 65.7683 154.97C65.7683 154.039 66.5213 153.284 67.4499 153.284C68.379 153.284 69.132 154.039 69.132 154.97Z" stroke="#D2D8DF" stroke-width="2.921" stroke-linecap="round"/>
    <path fill-rule="evenodd" clip-rule="evenodd" d="M68.1312 20.845C68.1312 21.9593 67.2301 22.8618 66.1187 22.8618C65.0073 22.8618 64.1062 21.9593 64.1062 20.845C64.1062 19.7312 65.0073 18.8281 66.1187 18.8281C67.2301 18.8281 68.1312 19.7312 68.1312 20.845Z" stroke="#D2D8DF" stroke-width="2.921" stroke-linecap="round"/>
    <path fill-rule="evenodd" clip-rule="evenodd" d="M119.467 173.636C118.181 174.127 116.741 173.479 116.252 172.191C115.763 170.902 116.408 169.459 117.695 168.97C118.98 168.479 120.42 169.126 120.909 170.415C121.399 171.704 120.753 173.146 119.467 173.636Z" stroke="#D2D8DF" stroke-width="2.921" stroke-linecap="round"/>
    <path fill-rule="evenodd" clip-rule="evenodd" d="M118.7 125.969H69.5231C66.0618 125.969 63.2285 123.122 63.2285 119.642V49.3808C63.2285 45.9013 66.0618 43.0557 69.5231 43.0557H118.7C122.163 43.0557 124.996 45.9013 124.996 49.3808V119.642C124.996 123.122 122.163 125.969 118.7 125.969Z" fill="#D0EDF7"/>
    <path fill-rule="evenodd" clip-rule="evenodd" d="M114.502 128.973H65.3251C61.8638 128.973 59.0305 126.126 59.0305 122.646V52.3847C59.0305 48.9052 61.8638 46.0596 65.3251 46.0596H114.502C117.965 46.0596 120.798 48.9052 120.798 52.3847V122.646C120.798 126.126 117.965 128.973 114.502 128.973Z" fill="#078FF7"/>
    <path fill-rule="evenodd" clip-rule="evenodd" d="M110.419 131.345H61.1404C57.6719 131.345 54.8328 128.51 54.8328 125.045V55.0739C54.8328 51.6087 57.6719 48.7749 61.1404 48.7749H110.419C113.889 48.7749 116.728 51.6087 116.728 55.0739V125.045C116.728 128.51 113.889 131.345 110.419 131.345Z" fill="#78BCE2"/>
    <path fill-rule="evenodd" clip-rule="evenodd" d="M110.419 131.345H61.1404C57.6719 131.345 54.8328 128.51 54.8328 125.045V55.0739C54.8328 51.6087 57.6719 48.7749 61.1404 48.7749H110.419C113.889 48.7749 116.728 51.6087 116.728 55.0739V125.045C116.728 128.51 113.889 131.345 110.419 131.345Z" fill="#DFF4FF"/>
    <path fill-rule="evenodd" clip-rule="evenodd" d="M103.316 70.0927H66.9177C65.8782 70.0927 65.0273 69.2817 65.0273 68.2909C65.0273 67.2988 65.8782 66.4878 66.9177 66.4878H103.316C104.356 66.4878 105.206 67.2988 105.206 68.2909C105.206 69.2817 104.356 70.0927 103.316 70.0927Z" fill="#D0EDF7"/>
    <path fill-rule="evenodd" clip-rule="evenodd" d="M103.316 80.9077H66.9177C65.8782 80.9077 65.0273 80.0967 65.0273 79.1059C65.0273 78.1137 65.8782 77.3027 66.9177 77.3027H103.316C104.356 77.3027 105.206 78.1137 105.206 79.1059C105.206 80.0967 104.356 80.9077 103.316 80.9077Z" fill="#D0EDF7"/>
    <path fill-rule="evenodd" clip-rule="evenodd" d="M103.316 91.7221H66.9177C65.8782 91.7221 65.0273 90.9111 65.0273 89.9203C65.0273 88.9295 65.8782 88.1172 66.9177 88.1172H103.316C104.356 88.1172 105.206 88.9295 105.206 89.9203C105.206 90.9111 104.356 91.7221 103.316 91.7221Z" fill="#D0EDF7"/>
    <path fill-rule="evenodd" clip-rule="evenodd" d="M103.316 102.537H66.9177C65.8782 102.537 65.0273 101.726 65.0273 100.735C65.0273 99.7431 65.8782 98.9321 66.9177 98.9321H103.316C104.356 98.9321 105.206 99.7431 105.206 100.735C105.206 101.726 104.356 102.537 103.316 102.537Z" fill="#D0EDF7"/>
    <path fill-rule="evenodd" clip-rule="evenodd" d="M85.9171 113.352H66.9258C65.8818 113.352 65.0273 112.541 65.0273 111.55C65.0273 110.558 65.8818 109.747 66.9258 109.747H85.9171C86.961 109.747 87.8155 110.558 87.8155 111.55C87.8155 112.541 86.961 113.352 85.9171 113.352Z" fill="#D0EDF7"/>
    <path fill-rule="evenodd" clip-rule="evenodd" d="M124.25 99.3745C116.971 106.665 105.704 107.488 97.5236 101.859C96.4782 101.127 95.4831 100.304 94.5552 99.3745C94.0775 98.8976 93.6273 98.4053 93.203 97.887C92.3545 96.8521 91.6113 95.7483 91.0023 94.6078C89.9294 92.6815 89.1999 90.6376 88.8016 88.5248C87.5166 81.8991 89.438 74.7673 94.5552 69.6428C99.6846 64.5031 106.804 62.5906 113.418 63.8656C115.526 64.2768 117.568 65.0076 119.491 66.0701C120.631 66.6938 121.718 67.4383 122.752 68.2883C123.268 68.7118 123.76 69.1643 124.236 69.6428C125.165 70.5723 125.999 71.5676 126.716 72.6163C132.337 80.809 131.514 92.0975 124.25 99.3745Z" fill="white" fill-opacity="0.1"/>
    <path fill-rule="evenodd" clip-rule="evenodd" d="M122.213 97.9388C114.641 105.527 102.37 105.525 94.7964 97.9388C87.2328 90.3609 87.2328 78.0653 94.8063 70.4789C102.37 62.9011 114.641 62.9011 122.204 70.4789C129.776 78.0653 129.776 90.3609 122.213 97.9388ZM126.099 66.5811C116.38 56.8434 100.63 56.8434 90.9104 66.5811C81.1924 76.3174 81.184 92.107 90.9019 101.845C99.7477 110.704 113.612 111.503 123.364 104.229C124.317 103.518 125.234 102.72 126.109 101.845C126.982 100.968 127.778 100.049 128.487 99.0948C135.748 89.3232 134.943 75.4422 126.099 66.5811Z" fill="#D0D3D6"/>
    <path fill-rule="evenodd" clip-rule="evenodd" d="M164.349 138.551L163.941 138.96C161.241 141.666 156.821 141.666 154.12 138.96L129.194 113.987L139.423 103.739L164.349 128.712C167.05 131.418 167.05 135.845 164.349 138.551Z" fill="url(#paint0_linear_24017_55235)"/>
    <path fill-rule="evenodd" clip-rule="evenodd" d="M129.025 98.3311L136.39 105.711L131.161 110.948L123.797 103.569C124.769 102.843 125.703 102.029 126.598 101.136C127.489 100.243 128.301 99.3048 129.025 98.3311Z" fill="#E0E2EE"/>
    <path fill-rule="evenodd" clip-rule="evenodd" d="M163.976 128.404L153.812 138.586L151.982 136.752L162.145 126.57L163.976 128.404Z" fill="#71BFFB"/>
    <path fill-rule="evenodd" clip-rule="evenodd" d="M139.988 104.091L129.546 114.554L127.995 112.999L138.437 102.537L139.988 104.091Z" fill="#FFC845"/>
    <path fill-rule="evenodd" clip-rule="evenodd" d="M117.2 67.8686L91.5914 93.5245C90.6269 91.7928 89.9712 89.9552 89.6145 88.0558L111.741 65.8867C113.636 66.2578 115.472 66.9134 117.2 67.8686Z" fill="white" fill-opacity="0.5"/>
    <path fill-rule="evenodd" clip-rule="evenodd" d="M125.596 73.9671L97.9101 100.134C96.9186 99.4799 95.9749 98.7439 95.0949 97.9121C94.6419 97.4839 94.2134 97.0448 93.8125 96.581L121.836 70.0928C122.326 70.4731 122.792 70.878 123.244 71.3062C124.124 72.138 124.916 73.0286 125.596 73.9671Z" fill="white" fill-opacity="0.5"/>
    <defs>
        <linearGradient id="paint0_linear_24017_55235" x1="147.784" y1="85.1133" x2="110.534" y2="122.294" gradientUnits="userSpaceOnUse">
            <stop stop-color="#71BFFB"/>
            <stop offset="1" stop-color="#078FF7"/>
        </linearGradient>
    </defs>
</svg>
