<svg data-name="Layer 1" xmlns="http://www.w3.org/2000/svg" viewBox="0 0 340 340"><path d="M275.681 69.449h9.932a5.337 5.337 0 0 1 5.337 5.337v15.27h-20.606V74.787a5.337 5.337 0 0 1 5.337-5.338z" transform="rotate(56.01 280.75 79.79)" style="fill:#497fce"/><path d="m225.645 203.266 1.549-5a9.115 9.115 0 0 0-1.837-8.7 125.7 125.7 0 0 1-8.763-11.329l3.645-3.292a9.122 9.122 0 0 1 10.529-1.253c6.977 3.871 21.2 8.029 42.859-2.825a8.464 8.464 0 0 1 10.932 3.122 8.518 8.518 0 0 1-2.5 11.6 46.073 46.073 0 0 1-16.658 6.67l-3.467 11z" style="fill:#ffcac0"/><path d="M63.827 182.609s-14.993 14.507-24.218 40.337c0 0-14.145 46.387-13.223 105.6H184.44l-4.92-50.246c7.461 2.549 14.9 11.669 14.9 11.669l11.387 8.919a15.538 15.538 0 0 0 12.138 3.093 15.5 15.5 0 0 0 11.2-8.111c6.594-12.647 20.6-42.766 32.783-90.6h-36.283l-14.624 37.79s-23.414-30.9-52.376-57.032z" style="fill:#f7f7f7"/><path d="M120.35 305.179c41-31.857 47.333-83.7 47.333-83.7l-9.038-16.732 7.171-14.119a821.62 821.62 0 0 0-7.171-6.6l-10.29-.154-10.155 13.549 7.33 25.948c-4.52 25.948-36.817 79.732-36.817 79.732v25.446h6.058l.287-12.86a13.7 13.7 0 0 1 5.292-10.51z" style="fill:#a7bad6"/><path d="m89.112 153.67 36.245 5.974s19.72 47.861 0 113.337l-11.142 1.43S84.023 233.069 89.112 153.67z" style="fill:#a7b7ea"/><path d="m112.62 298.653 3.419-11.626-38.284-104.211-13.928-.207a72.266 72.266 0 0 0-5.972 6.893l8.523 12.27-12.8 23.076s22.797 56.936 59.042 73.805z" style="fill:#a7bad6"/><path d="M113.327 192.377a4.462 4.462 0 0 1 4.212 3.2l15.938 54.036-14.291 30.452-17.947-27.82 7.6-56a4.461 4.461 0 0 1 4.488-3.868z" style="fill:#3c3c4f"/><path d="M89.112 153.67s2.037 60.982 26.049 110.7c0 0-.77 15.83-8.434 22.814a241.985 241.985 0 0 1-39.867-66.163l10.108-18.6-13.141-19.812a306.4 306.4 0 0 0 25.285-28.939z" style="fill:#f7f7f7"/><path d="M115.164 264.364s-6.9 11.022-11.694 19.9c4.878 5.74 11.3 11.759 11.3 11.759l7.278-18.8a169.947 169.947 0 0 1-6.884-12.859z" style="fill:#a7bad6"/><path d="M89.112 135.4v18.27s5.352 14.823 22.829 26.33c0 0 8.028-6.416 13.416-20.353V152.9c-13.664-7.561-26.351-14.055-36.245-17.5z" style="fill:#ffcac0"/><path d="M125.357 156.087v3.557c2.171 16.047 9.066 80.136-16.648 143.459 0 0 36.189-22.037 48.319-81.475l-12.939-18.6 14.556-19s-17.603-19.002-33.288-27.941z" style="fill:#f7f7f7"/><path transform="rotate(56.026 209.852 127.46)" style="fill:#497fce" d="M202.407 113.861h14.887v27.194h-14.887z"/><path d="m223.122 132.7-13.15-19.516a5.762 5.762 0 0 1 1.558-8l7.852-5.291a8.361 8.361 0 0 0 5.752-3.876l7.815-5.266a9.515 9.515 0 0 0 5.751-3.875l7.815-5.266a9.268 9.268 0 0 0 5.752-3.876l7.851-5.291a5.762 5.762 0 0 1 8 1.559l13.151 19.516a5.762 5.762 0 0 1-1.559 8l-48.588 32.74a5.761 5.761 0 0 1-8-1.558z" style="fill:#bddeff"/><path d="M180.425 130.672h29.713a5.313 5.313 0 0 1 5.313 5.313v7.893h-40.339v-7.893a5.313 5.313 0 0 1 5.313-5.313z" transform="rotate(56.026 195.283 137.277)" style="fill:#7aaeed"/><path d="M252.9 91.094a3.468 3.468 0 0 0 5.752-3.876l-6.386-9.478-5.752 3.876zM241.4 103.3a3.468 3.468 0 0 0 5.752-3.875L238.7 86.882l-5.751 3.875zM231.52 105.5l-6.386-9.478-5.752 3.878 6.386 9.478a3.468 3.468 0 0 0 5.752-3.876z" style="fill:#7aaeed"/><path d="M89.112 135.4s14.392 16.884 36.245 17.5v-16.707L89.112 113.93z" style="fill:#e5837c"/><path d="m87.113 88.436-.893 25.184s4.255 9.8 20 20.674c23.73-8.079 43.485-19.936 48.677-39.6-.019-8.967-.012-18.624.054-27.335L87.113 47.035z" style="fill:#ffcac0"/><path d="M117.631 65.031s23.656 7.94 37.327 2.325c0 0 .051-6.732.12-10.9l-67.965-9.421-.179 9.247c6.966 12.33 21.691 25.477 30.697 8.749z" style="fill:#e5837c"/><circle cx="124.696" cy="82.329" r="3.766" style="fill:#e5837c"/><circle cx="141.287" cy="82.329" r="3.766" style="fill:#e5837c"/><path d="M96.872 60.547s3.377 26.2-11.91 40.892c0 0-18.584-7.943-18.584-32.972S82.564 40.29 82.564 40.29s2.1-20.533 29.675-21.881c23.683-1.159 51.124-5.442 58.4-6.628a1.794 1.794 0 0 1 2.083 1.633c.346 4.533.024 15.947-10.726 22.68l10.5-1.221a1.8 1.8 0 0 1 1.968 2.183c-1.953 8.991-12.357 38.457-62.952 17.259A26.667 26.667 0 0 1 111.7 61a5.956 5.956 0 0 1-7.731 5.159 12.209 12.209 0 0 1-7.097-5.612z" style="fill:#5c5c6d"/><path d="M117.069 140.858s16.225 8.025 28.867-1.489a23.4 23.4 0 0 0 9.088-18.928c-.044-6-.1-15.417-.124-25.75a31.507 31.507 0 0 1-3.886 2.773 8.061 8.061 0 0 1-8.4-.105 11.8 11.8 0 0 0-6.2-1.918 17.8 17.8 0 0 0-7.257 2.532 22.963 22.963 0 0 1-14.334 3.6c-6.778-.651-11.914-1.687-11.914-1.687 7.893 14.733 3.312 34.4 3.312 34.4a109.4 109.4 0 0 0 10.848 6.572z" style="fill:#bdf2dc"/><path d="M92.147 106.663a11.426 11.426 0 0 1-10.723 10.927 8.864 8.864 0 0 1-6.248-2.067c-6.76-5.693-4.626-19.214-4.626-19.214s.712-9.963 9.963-9.725c3.965.1 6.732 2.643 8.6 5.514a20.582 20.582 0 0 1 3.156 12.356z" style="fill:#ffcac0"/><path d="M83.356 95.8a7.46 7.46 0 0 0-4.856-2.886 1.56 1.56 0 0 0-1.69 1.4 1.579 1.579 0 0 0 1.382 1.725s3.543.251 4.041 5.042c0 0-2.078-.567-2.456 2.525s.623 5.166 4.131 5.424a1.568 1.568 0 0 0 1.552-1.356c.714-5.232.006-9.227-2.104-11.874z" style="fill:#e5837c"/><path d="M92.94 284.853s7.052 16.439 6.018 43.7h12.563v-32.728zM177.737 260.082l1.783 18.218 14.9 11.669a118.719 118.719 0 0 0-11.6-31.444 2.713 2.713 0 0 0-5.083 1.557z" style="fill:#a7bad6"/><path d="M26.382 332.005h.055a3.467 3.467 0 0 0 3.413-3.521c-.886-56.865 12.425-102.369 13.05-104.467a116.469 116.469 0 0 1 20.485-35.805l9.534 14.375-9.111 16.766a3.467 3.467 0 0 0-.18 2.927 244.24 244.24 0 0 0 37.5 63.586 3.468 3.468 0 0 0 5.378-4.381 237.669 237.669 0 0 1-35.829-60.248l9.332-17.171a3.47 3.47 0 0 0-.156-3.573L68.27 183.028c3.387-3.477 10.558-11.041 17.943-20.08 1.625 20.1 7.646 69.119 29.071 109.312a243.14 243.14 0 0 1-9.773 29.479v.006l-.016.041a3.475 3.475 0 0 0-.173.569c-.011.053-.015.108-.024.161a3.593 3.593 0 0 0-.049.483c0 .031-.009.06-.009.092v24.742a3.468 3.468 0 0 0 6.936 0v-22.885c7.437-5.187 37.291-28.945 48.249-82.639a3.47 3.47 0 0 0-.551-2.673l-11.493-16.521 10.719-13.991c27.1 25.046 48.934 53.718 49.159 54.015a3.468 3.468 0 0 0 6-.843l13.766-35.574h29.429c-11.645 44.321-24.58 72.486-31.379 85.528a12.069 12.069 0 0 1-18.128 3.891l-25.117-19.672-3.147-32.145a3.468 3.468 0 1 0-6.9.676l3.292 33.622 4.92 50.253a3.468 3.468 0 0 0 3.447 3.13 3.29 3.29 0 0 0 .342-.017 3.468 3.468 0 0 0 3.114-3.789l-4.13-42.188 19.905 15.59a19.006 19.006 0 0 0 28.555-6.144c7.152-13.719 20.951-43.809 33.043-91.247l2.837-9a48.547 48.547 0 0 0 15.886-6.744 11.97 11.97 0 0 0-11.924-20.706c-20.5 10.272-33.624 6.222-39.624 2.892a12.584 12.584 0 0 0-14.536 1.713l-3.645 3.292a3.467 3.467 0 0 0-.533 4.538 129.954 129.954 0 0 0 9.008 11.645 5.615 5.615 0 0 1 1.138 5.391l-1.513 4.879-12.383 32c-7.821-9.775-26.844-32.639-48.9-52.562-1.506-1.615-17.229-18.3-32.264-27.451v-6.7c.828.062 1.673.1 2.541.1a26.468 26.468 0 0 0 27.129-27.097c-.044-6.045-.1-15.417-.125-25.732-.016-7.972-.011-15.2.019-21.484a3.468 3.468 0 0 0-3.452-3.484h-.017a3.468 3.468 0 0 0-3.467 3.452c-.028 5.849-.034 12.523-.022 19.841a31.363 31.363 0 0 1-2.224 1.5 4.589 4.589 0 0 1-4.79-.109 15.006 15.006 0 0 0-8.062-2.422c-.067 0-.135 0-.2.009a21.078 21.078 0 0 0-8.828 3.049 19.44 19.44 0 0 1-12.165 3.09c-6.5-.625-11.512-1.625-11.561-1.635-.025 0-.05 0-.074-.009s-.03-.01-.046-.013a24.475 24.475 0 0 1-8.2-3.119 3.492 3.492 0 0 0 .452-1.055 70.686 70.686 0 0 0 4.914-23.74 18 18 0 0 0 2.267.906 9.31 9.31 0 0 0 8.033-1.1 9.419 9.419 0 0 0 4.216-7.042c.057-.618.093-1.215.113-1.784 19.851 7.4 35.683 7.69 47.109.841 14.211-8.519 15.9-24.766 15.961-25.453a3.468 3.468 0 0 0-3.853-3.77l-2.746.319c6.251-9.33 4.266-20.081 4.152-20.662a3.473 3.473 0 0 0-3.992-2.75c-.324.056-32.791 5.567-59.834 6.89C87.629 16.129 81.178 31.6 79.592 37.583c-5.078 1.964-16.686 8.863-16.686 30.872a42.6 42.6 0 0 0 5.68 22.039A16.293 16.293 0 0 0 67.1 95.9c-.32 2.142-1.984 15.677 5.839 22.265a12.324 12.324 0 0 0 8.068 2.89c.182 0 .365 0 .549-.011a14.212 14.212 0 0 0 4.085-.773v32.219a307.533 307.533 0 0 1-24.258 27.645c-.905.881-15.743 15.6-25.041 41.632-.018.051-.036.1-.051.155-.143.469-14.294 47.591-13.373 106.668a3.468 3.468 0 0 0 3.464 3.415zM221.2 178.743l1.363-1.231a5.648 5.648 0 0 1 6.522-.794c7.2 3.992 22.75 8.941 46.1-2.757a5.034 5.034 0 0 1 4.941 8.746 42.708 42.708 0 0 1-15.415 6.151 3.468 3.468 0 0 0-2.617 2.357l-2.7 8.571h-29.047l.156-.5a12.51 12.51 0 0 0-2.537-12.007 120.05 120.05 0 0 1-6.766-8.536zM93.686 167.98a69.315 69.315 0 0 0 16.345 14.9 3.469 3.469 0 0 0 4.071-.187 46.771 46.771 0 0 0 9.518-11.67 310.568 310.568 0 0 1-5.814 90.82c-16.091-33.867-22.012-73.178-24.12-93.863zm60.394 16.284-12.748 16.643a3.469 3.469 0 0 0-.094 4.09l12.086 17.373c-7.954 37.328-25.772 59.343-36.876 69.941 19.181-55.636 15.562-109.823 13.343-129.284 10.147 7.132 20.13 16.973 24.289 21.237zm-32.194-25.288a52.188 52.188 0 0 1-10.3 16.557c-12.787-9.217-17.964-20.1-19.01-22.548v-25.319a89.093 89.093 0 0 0 11.671 9.47c.023.016.047.026.07.041a113.614 113.614 0 0 0 11.12 6.732l.09.046a36.373 36.373 0 0 0 6.359 2.265zm21.961-22.39a18.976 18.976 0 0 1-6.272 3.1 55.934 55.934 0 0 0 3.121-15.013 43.878 43.878 0 0 0 10.845-3.661 19.92 19.92 0 0 1-7.694 15.574zm7.6-35.461c.016 4.347.037 8.39.058 11.961a34.95 34.95 0 0 1-10.572 4.427 101.879 101.879 0 0 0-1.9-18.093 11.817 11.817 0 0 1 1.778.89 11.566 11.566 0 0 0 10.635.815zm-36.955 3.889a26.29 26.29 0 0 0 16.5-4.111c.376-.235.753-.436 1.126-.621 1.416 7.07 4.365 26.48-2.423 40.185a33.051 33.051 0 0 1-11.065-2.716c-3-1.6-5.874-3.3-8.571-5.068a71.409 71.409 0 0 0 .924-9.5 75.789 75.789 0 0 0 14.127 2.382q.123.009.246.009a3.468 3.468 0 0 0 .239-6.927 68.733 68.733 0 0 1-14.791-2.734 50.141 50.141 0 0 0-2.253-11.594c1.738.237 3.749.481 5.94.695zm-31.27-61.331a3.5 3.5 0 0 0 2.786-3.03c.083-.718 2.309-17.614 26.4-18.792 22.036-1.078 47.546-4.882 56.944-6.374.025 4.549-1.184 12.637-9.2 17.656a3.468 3.468 0 0 0 2.241 6.384l8.1-.942C169.155 43.1 166 50.1 158.808 54.413c-10.388 6.23-25.851 5.115-45.957-3.308a3.473 3.473 0 0 0-4.75 3.832 23.684 23.684 0 0 1 .144 5.737 2.521 2.521 0 0 1-1.128 1.883 2.376 2.376 0 0 1-2.075.29 8.749 8.749 0 0 1-5.153-4.015 3.468 3.468 0 0 0-6.461 2.143c.011.085 1.65 16.337-3.067 27.051a13.183 13.183 0 0 0-9.761-4.921 12.764 12.764 0 0 0-7.166 1.789 36.74 36.74 0 0 1-3.59-16.439C69.842 46.833 82.71 43.8 83.222 43.683zm-1.936 70.429a5.422 5.422 0 0 1-3.88-1.253c-4.289-3.612-3.933-12.794-3.434-16.021.015-.1.026-.195.034-.293.048-.682.644-6.693 6.414-6.506.81.021 3.274.084 5.781 3.938.01.016.024.028.034.043 3.6 5.708 10.87 8.073 14.319 8.9 4.051 8.67 3.791 19.034 3.119 25.195a55.917 55.917 0 0 1-11.9-11.962 15.212 15.212 0 0 0 1.791-2.472 3.468 3.468 0 0 0-6-3.482 7.639 7.639 0 0 1-6.278 3.913z" style="fill:#3c3c4f"/><path d="M175.127 123.564a3.468 3.468 0 0 0 .528 2.6l22.545 33.454a3.468 3.468 0 0 0 4.814.938l6.546-4.411a8.783 8.783 0 0 0 2.375-12.189l-2.2-3.271 10.038-6.764.478.709a9.165 9.165 0 0 0 5.888 3.9 9.322 9.322 0 0 0 1.785.173 9.164 9.164 0 0 0 5.139-1.579l48.587-32.74a9.241 9.241 0 0 0 3.43-11.023l7.385-4.976a8.815 8.815 0 0 0 2.382-12.223L294 74.921l21.6-14.551a3.468 3.468 0 0 0-3.876-5.752l-21.6 14.552-.837-1.243a8.813 8.813 0 0 0-12.222-2.381l-7.385 4.976a9.219 9.219 0 0 0-11.506-.96L209.589 102.3a9.24 9.24 0 0 0-2.5 12.812l.478.708-10.038 6.764-2.2-3.271a8.78 8.78 0 0 0-12.189-2.376l-6.546 4.411a3.468 3.468 0 0 0-1.467 2.216zM280.942 71.3a1.87 1.87 0 0 1 2.595.5l5.55 8.237a1.871 1.871 0 0 1-.506 2.595l-7.2 4.85-7.639-11.337zm-67.478 36.756 48.589-32.74a2.294 2.294 0 0 1 3.184.621l13.15 19.515a2.3 2.3 0 0 1-.62 3.184l-48.589 32.741a2.293 2.293 0 0 1-3.183-.621l-13.15-19.515a2.3 2.3 0 0 1 .619-3.187zm-2.018 13.521 4.443 6.594-10.038 6.764-4.443-6.594zm-24.431 1.117a1.846 1.846 0 0 1 2.561.5l16.6 24.642a1.844 1.844 0 0 1-.5 2.56l-3.67 2.473-18.666-27.7z" style="fill:#3c3c4f"/></svg>
